<?xml version="1.0" encoding="UTF-8"?>
<svg version="1.1" xmlns="http://www.w3.org/2000/svg" width="810" height="308">
<path d="M0 0 C0.83991486 -0.00335861 1.67982971 -0.00671722 2.54519653 -0.01017761 C5.31188452 -0.01964695 8.07851167 -0.021629 10.84521484 -0.02270508 C12.78087386 -0.02592151 14.71653264 -0.02928587 16.65219116 -0.03279114 C20.70888837 -0.03877313 24.76556432 -0.0406321 28.82226562 -0.04003906 C33.99327507 -0.03993774 39.16414628 -0.05356343 44.33512306 -0.07081127 C48.33483493 -0.08199194 52.33451408 -0.08395638 56.33423996 -0.08342934 C58.23901214 -0.08460134 60.14378538 -0.08897881 62.04854202 -0.0967617 C84.94063039 -0.18151065 104.04678154 3.49370507 121.30615234 19.52026367 C137.398689 36.80779068 139.91919688 58.08177022 139.82958984 80.55541992 C139.83161836 82.37991959 139.8345362 84.20441846 139.83828735 86.02891541 C139.84267309 89.82502068 139.83640142 93.62091207 139.82226562 97.41699219 C139.80516376 102.24002366 139.81504541 107.06255441 139.83298302 111.88556767 C139.84391274 115.6443599 139.840333 119.40303677 139.83259964 123.16183281 C139.83062355 124.93852233 139.83296373 126.71522295 139.8400383 128.49189949 C139.91080634 151.24464059 135.69423346 170.26554609 119.61865234 187.39526367 C102.87475421 203.32476988 82.92613432 205.46391402 61.04052734 205.44604492 C59.04811515 205.44993937 57.05570378 205.45427556 55.06329346 205.45903015 C50.89763696 205.46646624 46.73206525 205.4662206 42.56640625 205.4609375 C37.26335137 205.45515401 31.96064702 205.47205969 26.65764999 205.49528217 C22.54461686 205.51011226 18.43166628 205.51087854 14.31861115 205.50777245 C12.36525022 205.50828126 10.41188412 205.51343502 8.4585495 205.52358437 C-13.86428053 205.625332 -31.54624648 201.75569869 -48.25634766 185.89526367 C-64.27019656 169.20357989 -66.88754684 150.28964515 -66.90478516 128.29760742 C-66.9112261 126.35722255 -66.91795539 124.41683862 -66.92495728 122.47645569 C-66.93689179 118.41754917 -66.94064225 114.35872749 -66.93945312 110.29980469 C-66.93925062 105.14492514 -66.96649978 99.99060107 -67.00099754 94.83585262 C-67.02344036 90.82820734 -67.02728533 86.82069182 -67.02623367 82.81299019 C-67.02856562 80.91512713 -67.03725017 79.01725913 -67.05289841 77.11945915 C-67.21836083 54.97289904 -63.32166915 35.28077237 -47.32275391 18.83666992 C-34.02387496 6.21869358 -18.28208933 -0.0105889 0 0 Z " fill="#02E8C7" transform="translate(98.56884765625,69.854736328125)"/>
<path d="M0 0 C0.6770549 -0.00511093 1.3541098 -0.01022186 2.05168152 -0.01548767 C4.27795374 -0.02932877 6.50391462 -0.0284316 8.73022461 -0.02612305 C10.28291437 -0.030012 11.83560307 -0.03434708 13.38829041 -0.03910828 C16.63715063 -0.04655792 19.88590214 -0.04628761 23.13476562 -0.04101562 C27.29668402 -0.03521185 31.4581587 -0.05217962 35.6200037 -0.0753603 C38.8241994 -0.09009231 42.02828796 -0.09097027 45.23251152 -0.08785057 C46.76710326 -0.0883637 48.30170101 -0.0935999 49.83625984 -0.10366249 C51.98097764 -0.11600455 54.12482727 -0.10925045 56.26953125 -0.09765625 C58.09889977 -0.09860039 58.09889977 -0.09860039 59.96522522 -0.0995636 C63.32442693 0.30531564 64.73367574 0.85956091 67.07006836 3.2746582 C67.57006836 6.2121582 67.57006836 6.2121582 67.07006836 9.2746582 C65.03472104 11.86621045 63.85200484 13.12379176 60.57696533 13.75567627 C59.64430847 13.74679382 58.71165161 13.73791138 57.75073242 13.72875977 C56.68993469 13.72845764 55.62913696 13.72815552 54.53619385 13.72784424 C53.39752869 13.7071991 52.25886353 13.68655396 51.08569336 13.6652832 C49.91496277 13.65962341 48.74423218 13.65396362 47.5380249 13.64813232 C43.79829036 13.62573945 40.05951339 13.57553501 36.32006836 13.5246582 C33.78492594 13.50459709 31.24976851 13.48634565 28.71459961 13.4699707 C22.49909004 13.42926665 16.28565116 13.35097505 10.07006836 13.2746582 C10.07006836 21.5246582 10.07006836 29.7746582 10.07006836 38.2746582 C14.33170898 38.22245117 14.33170898 38.22245117 18.67944336 38.16918945 C21.43301387 38.14578899 24.18657327 38.1275752 26.94018555 38.10986328 C28.85299645 38.09478263 30.76577282 38.0743151 32.6784668 38.04833984 C35.42887906 38.01192473 38.1788339 37.99492471 40.92944336 37.98168945 C42.2109024 37.95846367 42.2109024 37.95846367 43.51824951 37.93476868 C47.07079391 37.93376311 49.43090606 37.93931269 52.61401367 39.609375 C54.07006836 41.2746582 54.07006836 41.2746582 54.50756836 44.2121582 C54.00298642 47.74423177 53.72624214 48.90139238 51.07006836 51.2746582 C47.98482636 51.84850115 44.93664475 51.73856255 41.80834961 51.6652832 C40.90255661 51.65962341 39.99676361 51.65396362 39.06352234 51.64813232 C36.16933425 51.62573436 33.27638246 51.57553212 30.38256836 51.5246582 C28.42099769 51.5045976 26.45940763 51.48634607 24.49780273 51.4699707 C19.6880813 51.42585839 14.87928446 51.35680761 10.07006836 51.2746582 C10.09101562 52.44448242 10.11196289 53.61430664 10.13354492 54.81958008 C10.20631692 59.1879436 10.25200258 63.55625425 10.28979492 67.92504883 C10.30982603 69.81055736 10.33705909 71.69600444 10.37182617 73.58129883 C10.42072108 76.30215683 10.44312218 79.02218877 10.46069336 81.7434082 C10.4813385 82.57706909 10.50198364 83.41072998 10.52325439 84.26965332 C10.52540809 89.97407655 9.48264596 94.59484462 6.07006836 99.2746582 C1.75744626 102.01151454 -2.01400907 102.90378809 -7.00024414 102.05981445 C-11.24043272 100.33455554 -13.93629817 96.26192515 -15.92993164 92.2746582 C-16.04365732 89.75935747 -16.09774187 87.27109188 -16.10693359 84.75488281 C-16.11350479 83.97900818 -16.12007599 83.20313354 -16.12684631 82.40374756 C-16.14660315 79.82816473 -16.15825064 77.25264043 -16.16821289 74.67700195 C-16.17228842 73.7964319 -16.17636395 72.91586185 -16.18056297 72.00860786 C-16.20143947 67.34281778 -16.21573116 62.67705719 -16.22509766 58.01123047 C-16.23613156 53.20510387 -16.27049174 48.39944418 -16.31026936 43.59348202 C-16.33650181 39.88811928 -16.34479563 36.18286631 -16.34837914 32.4774189 C-16.35323241 30.70690338 -16.36481029 28.93639234 -16.38341713 27.16596794 C-16.57727283 7.48864441 -16.57727283 7.48864441 -11.92993164 2.2746582 C-7.9682551 0.12412915 -4.45586865 0.01682265 0 0 Z " fill="#F8FEFD" transform="translate(105.929931640625,121.725341796875)"/>
<path d="M0 0 C5.94989798 6.70321124 8.11165255 13.43421499 8.0390625 22.25390625 C8.03060303 23.59110718 8.03060303 23.59110718 8.02197266 24.95532227 C8.01472168 25.63006592 8.0074707 26.30480957 8 27 C3.89597595 27.17030273 -0.20823708 27.33556283 -4.3125 27.5 C-5.46041016 27.54769531 -6.60832031 27.59539062 -7.79101562 27.64453125 C-14.86545205 27.9251038 -21.92012533 28.06464819 -29 28 C-28.06538355 33.35159826 -28.06538355 33.35159826 -25.4375 37.9375 C-20.80000167 39.95897363 -16.02921037 40.52935923 -11.125 39.25 C-8.96705074 38.15718123 -8.96705074 38.15718123 -7.78515625 36.43359375 C-5.06600092 34.24993947 -2.72934339 34.7110096 0.6875 34.8125 C2.45673828 34.85310547 2.45673828 34.85310547 4.26171875 34.89453125 C5.16535156 34.92933594 6.06898438 34.96414062 7 35 C6.24941038 41.05589353 4.52801903 44.01263996 0 48 C-7.49657616 53.54518974 -17.15321453 52.83509479 -26 52 C-32.67355996 50.41341814 -37.31530307 45.62452415 -41 40 C-45.46779096 30.73171025 -45.50825109 19.0026317 -42.171875 9.35546875 C-39.39411512 3.77217138 -35.11877838 -1.35786195 -29.375 -4 C-19.15967019 -7.02676439 -8.58844072 -7.03450105 0 0 Z M-28 11 C-28.33 12.98 -28.66 14.96 -29 17 C-21.41 17 -13.82 17 -6 17 C-7.31674842 10.79339818 -7.31674842 10.79339818 -11 7 C-18.36496024 4.54501325 -22.92286822 5.30370581 -28 11 Z " fill="#FDFDFD" transform="translate(493,160)"/>
<path d="M0 0 C0.75063721 0.00499512 1.50127441 0.00999023 2.2746582 0.01513672 C8.22504927 0.20313251 12.14831251 1.36032666 16.5625 5.5 C17.12195313 5.93441406 17.68140625 6.36882812 18.2578125 6.81640625 C23.11599291 10.93529834 24.25920435 15.34554834 25.5625 21.5 C25.5625 25.13 25.5625 28.76 25.5625 32.5 C13.3525 32.83 1.1425 33.16 -11.4375 33.5 C-10.49208503 39.17248984 -10.19551555 40.63145458 -6.4375 44.5 C-2.05238537 45.96170488 1.86932018 46.00025768 6.3125 44.6875 C8.59363126 43.67959604 8.59363126 43.67959604 9.78515625 41.9375 C12.49646839 39.74461458 14.83473725 40.21105655 18.25 40.3125 C20.01923828 40.35310547 20.01923828 40.35310547 21.82421875 40.39453125 C22.72785156 40.42933594 23.63148438 40.46414062 24.5625 40.5 C23.60505951 46.15847328 21.37559243 49.78233349 17.1875 53.75 C9.60914495 58.8022367 0.32364211 58.35115877 -8.4375 57.5 C-15.09600119 55.9437231 -19.70243107 51.05059611 -23.4375 45.5 C-26.25270306 40.09323151 -26.95653705 35.74628046 -26.875 29.6875 C-26.86670166 28.89432373 -26.85840332 28.10114746 -26.84985352 27.28393555 C-26.58359157 18.02541081 -24.16266073 11.52697437 -17.51171875 4.97265625 C-11.88130448 0.97516815 -6.75304288 -0.05891258 0 0 Z M-10.4375 16.5 C-11.0975 18.48 -11.7575 20.46 -12.4375 22.5 C-4.5175 22.5 3.4025 22.5 11.5625 22.5 C9.62918538 16.4995808 9.62918538 16.4995808 5.5625 12.5 C-0.84672073 9.29538963 -5.9331898 11.56670787 -10.4375 16.5 Z " fill="#FDFDFD" transform="translate(741.4375,154.5)"/>
<path d="M0 0 C7.77351182 8.3615789 7.65234375 15.0234639 7.65234375 26.77734375 C-4.55765625 26.77734375 -16.76765625 26.77734375 -29.34765625 26.77734375 C-27.82582824 37.30225812 -27.82582824 37.30225812 -23.59765625 39.46484375 C-17.2019591 40.07981463 -12.97155332 40.25880384 -7.34765625 36.77734375 C-6.85265625 35.78734375 -6.85265625 35.78734375 -6.34765625 34.77734375 C-1.72765625 34.77734375 2.89234375 34.77734375 7.65234375 34.77734375 C6.45824785 40.31360656 5.07858215 42.98342512 0.65234375 46.77734375 C0.01296875 47.33421875 -0.62640625 47.89109375 -1.28515625 48.46484375 C-8.48347548 53.04559235 -17.17013395 52.44709027 -25.34765625 51.77734375 C-32.41077743 49.84724417 -37.31507012 44.72969827 -41.34765625 38.77734375 C-45.81260714 27.10967372 -45.12129106 17.26668219 -40.34765625 5.77734375 C-36.38683571 -0.96073854 -30.52374303 -4.07627949 -23.16015625 -6.09765625 C-14.70770742 -6.37478572 -6.59072063 -5.69895293 0 0 Z M-26.34765625 8.77734375 C-28.65473286 12.53666963 -28.65473286 12.53666963 -29.34765625 16.77734375 C-21.75765625 16.77734375 -14.16765625 16.77734375 -6.34765625 16.77734375 C-7.27165914 10.55919464 -7.27165914 10.55919464 -11.53515625 6.69140625 C-16.58692332 4.14374786 -22.10981332 5.14490695 -26.34765625 8.77734375 Z " fill="#FDFDFD" transform="translate(605.34765625,160.22265625)"/>
<path d="M0 0 C15.51 0 31.02 0 47 0 C47 3.96 47 7.92 47 12 C31.16 12.495 31.16 12.495 15 13 C14.67 19.27 14.34 25.54 14 32 C23.9 32 33.8 32 44 32 C44 35.96 44 39.92 44 44 C34.1 44 24.2 44 14 44 C14 53.57 14 63.14 14 73 C9.38 73 4.76 73 0 73 C-0.85070754 68.74646229 -1.09323313 65.4725172 -1.02172852 61.19018555 C-1.01212097 60.52621262 -1.00251343 59.86223969 -0.99261475 59.17814636 C-0.95980319 56.99755647 -0.91940399 54.81717828 -0.87890625 52.63671875 C-0.85458765 51.11929557 -0.83074497 49.6018647 -0.80735779 48.08442688 C-0.74468991 44.10101519 -0.67557481 40.11774069 -0.60510254 36.13446045 C-0.52179547 31.34955562 -0.44652131 26.56451846 -0.36989594 21.77950287 C-0.25274068 14.51954882 -0.12540245 7.25983738 0 0 Z " fill="#FDFDFD" transform="translate(309,138)"/>
<path d="M0 0 C1.79244141 0.01740234 1.79244141 0.01740234 3.62109375 0.03515625 C5.41740234 0.04869141 5.41740234 0.04869141 7.25 0.0625 C8.17683594 0.07410156 9.10367187 0.08570313 10.05859375 0.09765625 C10.38859375 2.07765625 10.71859375 4.05765625 11.05859375 6.09765625 C12.00734375 5.29328125 12.95609375 4.48890625 13.93359375 3.66015625 C18.10209174 0.12599491 20.76704355 -0.1116188 26.30859375 -0.21484375 C27.613125 -0.25222656 28.91765625 -0.28960937 30.26171875 -0.328125 C36.14241223 0.33133548 38.85467812 2.73590649 42.70483398 7.09082031 C45.92641113 11.7320175 45.69620096 16.13840004 45.546875 21.625 C45.53980026 22.61391739 45.53272552 23.60283478 45.5254364 24.62171936 C45.49759142 27.76032215 45.43487052 30.89709857 45.37109375 34.03515625 C45.34599813 36.17119808 45.32318718 38.30726805 45.30273438 40.44335938 C45.24779696 45.66215513 45.16159219 50.87959673 45.05859375 56.09765625 C40.76859375 56.09765625 36.47859375 56.09765625 32.05859375 56.09765625 C31.07593401 52.16701728 30.98693122 49.20010136 31.06640625 45.171875 C31.08392995 43.80404397 31.10083751 42.43620494 31.1171875 41.06835938 C31.14804878 38.92888873 31.18349227 36.789826 31.22998047 34.65063477 C31.27267215 32.57433219 31.29585846 30.49849973 31.31640625 28.421875 C31.33848145 27.18526123 31.36055664 25.94864746 31.38330078 24.67456055 C30.99959488 20.44773709 30.00369091 17.85119201 28.05859375 14.09765625 C24.35463271 12.24567573 20.09155493 12.49825006 16.05859375 13.09765625 C12.56519262 16.33544266 11.12810002 18.90208237 10.85327148 23.62939453 C10.81140091 25.14212632 10.7747242 26.65500742 10.7421875 28.16796875 C10.7214064 28.96419647 10.70062531 29.76042419 10.67921448 30.58078003 C10.61375226 33.1279831 10.5548496 35.6752905 10.49609375 38.22265625 C10.45290535 39.94792752 10.40929096 41.67318818 10.36523438 43.3984375 C10.2580743 47.6314031 10.15679752 51.86447378 10.05859375 56.09765625 C5.43859375 56.09765625 0.81859375 56.09765625 -3.94140625 56.09765625 C-3.96604581 48.28312411 -3.9842373 40.46861437 -3.99633789 32.65405273 C-4.00138008 29.99324144 -4.00821361 27.33243293 -4.0168457 24.67163086 C-4.02891634 20.85660109 -4.03463554 17.04160781 -4.0390625 13.2265625 C-4.04422379 12.02866592 -4.04938507 10.83076935 -4.05470276 9.59657288 C-4.05477829 8.49550705 -4.05485382 7.39444122 -4.05493164 6.26000977 C-4.05715225 5.28516129 -4.05937286 4.31031281 -4.06166077 3.30592346 C-3.8761586 -0.10050452 -3.47088329 0.11523517 0 0 Z " fill="#FDFDFD" transform="translate(394.94140625,154.90234375)"/>
<path d="M0 0 C3.58094221 3.58094221 4.30155299 6.07018466 5 11 C-6.63693555 11.77694674 -6.63693555 11.77694674 -9.953125 9.88671875 C-10.65695312 9.20029297 -10.65695312 9.20029297 -11.375 8.5 C-13.83887511 5.64327801 -13.83887511 5.64327801 -17.625 5.625 C-20.20197569 5.91133063 -22.53821547 6.21222895 -25 7 C-25 9.64 -25 12.28 -25 15 C-23.7625 15.268125 -22.525 15.53625 -21.25 15.8125 C-19.49975988 16.20727025 -17.74978509 16.60321775 -16 17 C-15.00226562 17.21785156 -14.00453125 17.43570313 -12.9765625 17.66015625 C-6.02769036 19.2617225 -0.02086029 20.6867984 4.9375 26.125 C6.83799683 31.26752083 6.91908181 36.62120002 4.9375 41.75 C-0.14247367 47.64932426 -4.917422 51.64748825 -12.890625 52.3359375 C-21.86694743 52.52356366 -29.80986437 52.67001543 -36.83203125 46.3515625 C-39.76930963 43.20103908 -41.86856942 40.46863978 -42 36 C-40.13748319 34.13748319 -37.2496451 34.69785961 -34.75 34.625 C-28.4179004 34.64569314 -28.4179004 34.64569314 -25.125 37.4375 C-24.42375 38.283125 -23.7225 39.12875 -23 40 C-17.25617095 41.70187527 -14.1096172 40.60694755 -9 38 C-9.03093173 35.58414426 -9.03093173 35.58414426 -10 33 C-13.79530153 30.25894889 -17.87533271 29.5646057 -22.375 28.625 C-29.21748313 27.12527767 -34.2426142 25.01589072 -39 19.8125 C-40.83755206 14.64438483 -40.91805547 9.29513869 -38.875 4.1875 C-33.86189284 -1.66112502 -29.02414429 -5.13611798 -21.33984375 -5.89453125 C-13.02294167 -6.26941665 -6.5169524 -5.45641062 0 0 Z " fill="#FDFDFD" transform="translate(549,160)"/>
<path d="M0 0 C4.62 0 9.24 0 14 0 C17.95572285 12.26138149 21.6414743 24.56156632 25 37 C25.66 37 26.32 37 27 37 C27.32798584 35.91468994 27.65597168 34.82937988 27.99389648 33.71118164 C29.20765853 29.69783849 30.42557592 25.68576662 31.64477539 21.67407227 C32.17260993 19.93516064 32.69930567 18.19590292 33.22485352 16.45629883 C33.97896419 13.96083928 34.73711574 11.46663908 35.49609375 8.97265625 C35.73154404 8.19036148 35.96699432 7.40806671 36.20957947 6.60206604 C37.88612829 1.11387171 37.88612829 1.11387171 39 0 C41.18639453 -0.07258946 43.37500389 -0.08373783 45.5625 -0.0625 C47.35880859 -0.04896484 47.35880859 -0.04896484 49.19140625 -0.03515625 C50.11824219 -0.02355469 51.04507813 -0.01195312 52 0 C53.13729859 3.41189576 52.89622735 3.96863246 51.6640625 7.19140625 C51.18670654 8.46673218 51.18670654 8.46673218 50.69970703 9.76782227 C50.16772705 11.15118774 50.16772705 11.15118774 49.625 12.5625 C48.8833705 14.54090084 48.14387996 16.52010449 47.40625 18.5 C47.014375 19.54929688 46.6225 20.59859375 46.21875 21.6796875 C43.69398652 28.55804953 41.34607592 35.49874627 38.97119141 42.42993164 C38.61202637 43.47528076 38.25286133 44.52062988 37.8828125 45.59765625 C37.40932373 46.98223022 37.40932373 46.98223022 36.92626953 48.39477539 C36.01632539 50.95408323 35.00879272 53.4780182 34 56 C28.72 56 23.44 56 18 56 C14.76342827 47.13530108 11.53301377 38.26846466 8.31889343 29.39559937 C7.12612246 26.10305331 5.93106259 22.81145459 4.72851562 19.52246094 C3.70636956 16.72627603 2.69497554 13.92649607 1.6875 11.125 C1.39222412 10.32545898 1.09694824 9.52591797 0.79272461 8.70214844 C-1.11450977 3.34352931 -1.11450977 3.34352931 0 0 Z " fill="#FCFCFC" transform="translate(660,155)"/>
<path d="M0 0 C1.79244141 0.01740234 1.79244141 0.01740234 3.62109375 0.03515625 C5.41740234 0.04869141 5.41740234 0.04869141 7.25 0.0625 C8.17683594 0.07410156 9.10367188 0.08570313 10.05859375 0.09765625 C10.71859375 1.41765625 11.37859375 2.73765625 12.05859375 4.09765625 C12.80109375 3.43765625 13.54359375 2.77765625 14.30859375 2.09765625 C19.05728347 -1.15989902 24.54550907 -0.14736974 30.05859375 0.09765625 C30.05859375 4.38765625 30.05859375 8.67765625 30.05859375 13.09765625 C28.53234375 13.03578125 27.00609375 12.97390625 25.43359375 12.91015625 C20.8969006 12.91015625 17.90051412 13.50436 14.05859375 16.09765625 C10.81712943 20.95985273 10.94135873 25.33208826 10.99609375 31.078125 C10.99988037 31.73218826 11.00366699 32.38625153 11.00756836 33.06013489 C11.01971681 35.13521123 11.03835678 37.21014401 11.05859375 39.28515625 C11.08514667 42.02864187 11.1051402 44.77205963 11.12109375 47.515625 C11.13269531 48.73016357 11.14429688 49.94470215 11.15625 51.19604492 C11.05859375 54.09765625 11.05859375 54.09765625 10.05859375 56.09765625 C5.43859375 56.09765625 0.81859375 56.09765625 -3.94140625 56.09765625 C-3.96604581 48.28312411 -3.9842373 40.46861437 -3.99633789 32.65405273 C-4.00138008 29.99324144 -4.00821361 27.33243293 -4.0168457 24.67163086 C-4.02891634 20.85660109 -4.03463554 17.04160781 -4.0390625 13.2265625 C-4.04422379 12.02866592 -4.04938507 10.83076935 -4.05470276 9.59657288 C-4.05477829 8.49550705 -4.05485382 7.39444122 -4.05493164 6.26000977 C-4.05715225 5.28516129 -4.05937286 4.31031281 -4.06166077 3.30592346 C-3.8761586 -0.10050452 -3.47088329 0.11523517 0 0 Z " fill="#FCFCFC" transform="translate(625.94140625,154.90234375)"/>
<path d="M0 0 C0.99 0.33 1.98 0.66 3 1 C4.1875 4.0625 4.1875 4.0625 5 7 C5.33 5.02 5.66 3.04 6 1 C6.33 1 6.66 1 7 1 C9.25881721 11.35080644 9.31020903 21.48747678 9.30078125 32.01953125 C9.30467895 33.84974767 9.30901579 35.67996321 9.31376648 37.51017761 C9.32118793 41.33013858 9.32096741 45.15000706 9.31567383 48.9699707 C9.30988776 53.82448082 9.32680942 58.67860832 9.3500185 63.53305531 C9.36487147 67.3089971 9.3656119 71.08484921 9.36250877 74.86081505 C9.3630163 76.64867599 9.36814488 78.43654272 9.37832069 80.22437477 C9.48662443 101.91098223 6.03574177 120.98713278 -9.29296875 137.46484375 C-11.16334525 139.34846185 -13.05461385 141.19430913 -15 143 C-15 142.01 -15 141.02 -15 140 C-14.484375 139.525625 -13.96875 139.05125 -13.4375 138.5625 C-12.963125 138.046875 -12.48875 137.53125 -12 137 C-12.22757731 134.83700789 -12.22757731 134.83700789 -13 133 C-8.25 130 -8.25 130 -6 130 C-6.26676204 128.01508358 -6.26676204 128.01508358 -7 126 C-7.99 125.67 -8.98 125.34 -10 125 C-8.71034824 123.62437146 -7.37310707 122.29233607 -6 121 C-5.34 121 -4.68 121 -4 121 C-4.03480469 120.22914063 -4.06960937 119.45828125 -4.10546875 118.6640625 C-4.13253906 117.66117187 -4.15960938 116.65828125 -4.1875 115.625 C-4.23970703 114.12839844 -4.23970703 114.12839844 -4.29296875 112.6015625 C-4.19628906 111.74304688 -4.09960938 110.88453125 -4 110 C-2.515 109.01 -2.515 109.01 -1 108 C-0.87625 108.969375 -0.7525 109.93875 -0.625 110.9375 C-0.315625 112.4534375 -0.315625 112.4534375 0 114 C0.66 114.33 1.32 114.66 2 115 C2 114.34 2 113.68 2 113 C2.66 113 3.32 113 4 113 C3.62875 111.948125 3.2575 110.89625 2.875 109.8125 C1.95723754 105.81367786 2.08615391 104.50871784 4 101 C4.66 101 5.32 101 6 101 C5.67 100.01 5.34 99.02 5 98 C4.01 98.495 4.01 98.495 3 99 C1.1005035 94.97769626 0.74723713 91.763178 0.74121094 87.33300781 C0.7377063 86.68349152 0.73420166 86.03397522 0.73059082 85.36477661 C0.72182288 83.22744911 0.72760775 81.09045562 0.734375 78.953125 C0.73302627 77.4572544 0.73108401 75.96138424 0.72857666 74.46551514 C0.72563153 71.33178531 0.7299009 68.19816965 0.73925781 65.06445312 C0.75061252 61.069015 0.74411444 57.0738468 0.73211288 53.07841873 C0.72484392 49.98811862 0.72720586 46.89788117 0.73236847 43.80757904 C0.73369314 42.33574135 0.73209919 40.86389777 0.72740936 39.39206696 C0.70815651 31.64734901 1.07467039 24.53192884 3 17 C2.63625333 13.70088806 2.63625333 13.70088806 1.625 10.75 C0.48441615 7.00095047 -0.18639017 3.9285313 0 0 Z " fill="#01E0D1" transform="translate(229,118)"/>
<path d="M0 0 C1.08152344 -0.01417969 2.16304688 -0.02835938 3.27734375 -0.04296875 C6.0625 0.1875 6.0625 0.1875 8.0625 2.1875 C8.30300903 4.47805786 8.30300903 4.47805786 8.28955078 7.37158203 C8.28932419 8.99303635 8.28932419 8.99303635 8.28909302 10.64724731 C8.27877045 11.81810883 8.26844788 12.98897034 8.2578125 14.1953125 C8.2549826 15.39106903 8.25215271 16.58682556 8.24923706 17.81881714 C8.23801305 21.65014519 8.21290431 25.48124222 8.1875 29.3125 C8.17747308 31.90494455 8.16834673 34.49739275 8.16015625 37.08984375 C8.13806643 43.45581862 8.10352133 49.8216201 8.0625 56.1875 C3.1125 56.1875 -1.8375 56.1875 -6.9375 56.1875 C-6.96213956 48.37296786 -6.98033105 40.55845812 -6.99243164 32.74389648 C-6.99747383 30.08308519 -7.00430736 27.42227668 -7.01293945 24.76147461 C-7.02501009 20.94644484 -7.03072929 17.13145156 -7.03515625 13.31640625 C-7.04031754 12.11850967 -7.04547882 10.9206131 -7.05079651 9.68641663 C-7.05087204 8.5853508 -7.05094757 7.48428497 -7.05102539 6.34985352 C-7.053246 5.37500504 -7.05546661 4.40015656 -7.05775452 3.39576721 C-6.81482013 -1.06530473 -3.80769579 0.02263791 0 0 Z " fill="#FDFDFD" transform="translate(371.9375,154.8125)"/>
<path d="M0 0 C0.83991486 -0.00335861 1.67982971 -0.00671722 2.54519653 -0.01017761 C5.31188452 -0.01964695 8.07851167 -0.021629 10.84521484 -0.02270508 C12.78087386 -0.02592151 14.71653264 -0.02928587 16.65219116 -0.03279114 C20.70888837 -0.03877313 24.76556432 -0.0406321 28.82226562 -0.04003906 C33.99327507 -0.03993774 39.16414628 -0.05356343 44.33512306 -0.07081127 C48.33483493 -0.08199194 52.33451408 -0.08395638 56.33423996 -0.08342934 C58.23901214 -0.08460134 60.14378538 -0.08897881 62.04854202 -0.0967617 C74.61368813 -0.14327921 86.77471142 -0.0865422 98.61865234 4.64526367 C99.70533203 5.06807617 100.79201172 5.49088867 101.91162109 5.92651367 C104.43115234 7.14526367 104.43115234 7.14526367 105.43115234 9.14526367 C103.78115234 9.14526367 102.13115234 9.14526367 100.43115234 9.14526367 C100.43115234 9.80526367 100.43115234 10.46526367 100.43115234 11.14526367 C98.05615234 11.33276367 98.05615234 11.33276367 95.43115234 11.14526367 C94.44115234 9.66026367 94.44115234 9.66026367 93.43115234 8.14526367 C93.43115234 8.80526367 93.43115234 9.46526367 93.43115234 10.14526367 C92.11115234 9.81526367 90.79115234 9.48526367 89.43115234 9.14526367 C88.30615234 5.39526367 88.30615234 5.39526367 89.43115234 3.14526367 C87.79146484 4.16620117 87.79146484 4.16620117 86.11865234 5.20776367 C84.25537109 6.36791992 84.25537109 6.36791992 82.43115234 7.14526367 C81.44115234 6.81526367 80.45115234 6.48526367 79.43115234 6.14526367 C78.93615234 5.15526367 78.93615234 5.15526367 78.43115234 4.14526367 C77.93008972 4.47058075 77.4290271 4.79589783 76.91278076 5.131073 C73.52516801 6.5155209 70.32443285 6.40804583 66.72509766 6.37231445 C65.95398148 6.37260651 65.1828653 6.37289856 64.38838196 6.37319946 C61.84523174 6.3718086 59.30237624 6.35625894 56.75927734 6.34057617 C54.99379639 6.33684518 53.22831336 6.33399861 51.46282959 6.33200073 C46.82019313 6.3243711 42.17768216 6.30472834 37.53509521 6.28259277 C32.79603778 6.26211993 28.05696003 6.25299594 23.31787109 6.24291992 C14.0222431 6.22148184 4.72670816 6.18735395 -4.56884766 6.14526367 C-4.56884766 5.48526367 -4.56884766 4.82526367 -4.56884766 4.14526367 C-3.24884766 3.48526367 -1.92884766 2.82526367 -0.56884766 2.14526367 C-3.11263496 2.4020593 -5.6529014 2.67518909 -8.19384766 2.95776367 C-8.90669922 3.02801758 -9.61955078 3.09827148 -10.35400391 3.1706543 C-15.02546634 3.70637247 -18.3749838 4.90203417 -22.56884766 7.14526367 C-25.94384766 7.33276367 -25.94384766 7.33276367 -28.56884766 7.14526367 C-27.56884766 5.14526367 -27.56884766 5.14526367 -24.83837891 4.11010742 C-23.69755859 3.77108398 -22.55673828 3.43206055 -21.38134766 3.08276367 C-20.25341797 2.74116211 -19.12548828 2.39956055 -17.96337891 2.04760742 C-11.93519703 0.44517933 -6.22003675 -0.00360262 0 0 Z " fill="#15EFB8" transform="translate(98.56884765625,69.854736328125)"/>
<path d="M0 0 C15.51 0 31.02 0 47 0 C46.67 0.66 46.34 1.32 46 2 C31.15 2.33 16.3 2.66 1 3 C6.12789062 2.94779297 6.12789062 2.94779297 11.359375 2.89453125 C14.66893682 2.8711376 17.97848943 2.85291988 21.28808594 2.83520508 C23.5889091 2.82011505 25.88970349 2.79964073 28.19042969 2.77368164 C31.49681702 2.73730853 34.80282416 2.72027568 38.109375 2.70703125 C39.13867126 2.69154739 40.16796753 2.67606354 41.22845459 2.66011047 C42.18914856 2.65988388 43.14984253 2.65965729 44.13964844 2.65942383 C44.98348083 2.65276199 45.82731323 2.64610016 46.69671631 2.63923645 C49.52228836 3.08180608 50.824546 4.1915699 53 6 C54.64797236 6.71162443 56.31165408 7.39031953 58 8 C55.11777126 9.44111437 52.6469793 9.11143461 49.42651367 9.09765625 C48.75150314 9.09619598 48.07649261 9.09473572 47.38102722 9.0932312 C45.91322794 9.08942203 44.44543327 9.08330214 42.9776516 9.07516479 C40.65316729 9.06241884 38.32873997 9.05588963 36.00422668 9.05102539 C30.22815016 9.03764052 24.45212745 9.0134879 18.67608643 8.98962402 C13.80047726 8.96987653 8.92488847 8.95423932 4.04924965 8.94406128 C1.76205934 8.93758939 -0.52504726 8.92507844 -2.81221008 8.91235352 C-4.22091601 8.9087192 -5.62962271 8.90536769 -7.03833008 8.90234375 C-8.26473709 8.89710693 -9.4911441 8.89187012 -10.75471497 8.88647461 C-13.63774306 8.98732766 -16.20156143 9.33064948 -19 10 C-19.33 10.99 -19.66 11.98 -20 13 C-20.33 12.01 -20.66 11.02 -21 10 C-16.375 7 -16.375 7 -13 7 C-13 6.34 -13 5.68 -13 5 C-10.36 5 -7.72 5 -5 5 C-4.67 4.01 -4.34 3.02 -4 2 C-2.68 2 -1.36 2 0 2 C0 1.34 0 0.68 0 0 Z " fill="#34E9C0" transform="translate(113,114)"/>
<path d="M0 0 C0.33 0.66 0.66 1.32 1 2 C0.67 2.99 0.34 3.98 0 5 C-0.09116335 7.66222191 -0.12603073 10.29770913 -0.11352539 12.9597168 C-0.11367142 13.76970123 -0.11381744 14.57968567 -0.1139679 15.41421509 C-0.113271 18.09257685 -0.10548903 20.77086913 -0.09765625 23.44921875 C-0.09579128 25.30581118 -0.09436775 27.1624041 -0.09336853 29.01899719 C-0.0895496 33.90655881 -0.07972461 38.79409074 -0.06866455 43.68164062 C-0.05843704 48.66861571 -0.05386803 53.65559558 -0.04882812 58.64257812 C-0.03810181 68.42839847 -0.02103284 78.21419676 0 88 C-3.05847848 88.54372951 -5.88772805 89 -9 89 C-9 87.35 -9 85.7 -9 84 C-7.515 83.505 -7.515 83.505 -6 83 C-6 82.01 -6 81.02 -6 80 C-6.99 79.67 -7.98 79.34 -9 79 C-9 56.89 -9 34.78 -9 12 C-6.525 12.495 -6.525 12.495 -4 13 C-4 14.32 -4 15.64 -4 17 C-4.66 17.33 -5.32 17.66 -6 18 C-6.33 27.9 -6.66 37.8 -7 48 C-6.01 48 -5.02 48 -4 48 C-3.67 58.56 -3.34 69.12 -3 80 C-2.98018066 77.68315186 -2.96036133 75.36630371 -2.93994141 72.97924805 C-2.87308948 65.33165892 -2.79544927 57.68420688 -2.71247292 50.03677654 C-2.66248787 45.39930409 -2.61615807 40.76185467 -2.578125 36.12426758 C-2.54130003 31.65027542 -2.49494777 27.17647489 -2.44193649 22.70264626 C-2.42337768 20.99422371 -2.40827523 19.28576007 -2.39665604 17.57727623 C-2.37981888 15.18762894 -2.35079052 12.79842192 -2.31884766 10.40893555 C-2.31668747 9.69971451 -2.31452728 8.99049347 -2.31230164 8.25978088 C-2.2500291 4.62269386 -2.07628854 3.11443281 0 0 Z " fill="#26E6BE" transform="translate(91,128)"/>
<path d="M0 0 C1.875 0.3125 1.875 0.3125 4 1 C4.66 1.99 5.32 2.98 6 4 C7.010625 4.33 8.02125 4.66 9.0625 5 C10.5165625 5.495 10.5165625 5.495 12 6 C12.33 6.99 12.66 7.98 13 9 C13.66 9 14.32 9 15 9 C15 9.66 15 10.32 15 11 C16.65 11 18.3 11 20 11 C20 11.66 20 12.32 20 13 C20.99 12.67 21.98 12.34 23 12 C23.33 12.99 23.66 13.98 24 15 C27.96 15 31.92 15 36 15 C36 15.66 36 16.32 36 17 C47.42202347 16.89256146 58.84398286 16.77994084 70.26588917 16.66066074 C75.56924665 16.60544104 80.87260966 16.55202249 86.17602539 16.50268555 C91.29185025 16.45502804 96.40760746 16.40268461 101.52335167 16.34705925 C103.4774069 16.326642 105.43148068 16.30792788 107.38556862 16.29092598 C110.11754703 16.26686811 112.84939744 16.23681531 115.58129883 16.20532227 C116.39337799 16.1995668 117.20545715 16.19381134 118.04214478 16.18788147 C121.27915011 16.14532472 123.90772312 16.03075896 127 15 C129.00212229 15.32033957 131.00239695 15.65259077 133 16 C133.33 15.67 133.66 15.34 134 15 C136.33297433 14.95907063 138.66705225 14.95758277 141 15 C141 14.01 141 13.02 141 12 C141.99 12 142.98 12 144 12 C143.01 11.34 142.02 10.68 141 10 C141 9.34 141 8.68 141 8 C141.99 8 142.98 8 144 8 C144 7.34 144 6.68 144 6 C145.32 6 146.64 6 148 6 C148 5.34 148 4.68 148 4 C149.65 4 151.3 4 153 4 C151 6 149 8 147 10 C149.95892758 9.52657159 152.09653564 8.40580306 154.625 6.875 C155.73875 6.25625 156.8525 5.6375 158 5 C158.99 5.495 158.99 5.495 160 6 C143.85160804 18.1425893 127.00243035 19.31661523 107.609375 19.30078125 C105.61696281 19.3046757 103.62455144 19.30901189 101.63214111 19.31376648 C97.46648461 19.32120257 93.3009129 19.32095693 89.13525391 19.31567383 C83.83219902 19.30989034 78.52949468 19.32679602 73.22649765 19.3500185 C69.11346452 19.36484859 65.00051394 19.36561487 60.8874588 19.36250877 C58.93409787 19.36301759 56.98073178 19.36817134 55.02739716 19.37832069 C35.22549474 19.46857792 18.81890513 16.97440476 3 4 C1.21484375 1.78515625 1.21484375 1.78515625 0 0 Z " fill="#5ADCD2" transform="translate(52,256)"/>
<path d="M0 0 C0.99 0.33 1.98 0.66 3 1 C3 2.98 3 4.96 3 7 C3.66 7 4.32 7 5 7 C5.33 6.34 5.66 5.68 6 5 C6 5.66 6 6.32 6 7 C6.66 7 7.32 7 8 7 C8 9.64 8 12.28 8 15 C6.35 15 4.7 15 3 15 C3 14.01 3 13.02 3 12 C2.4834082 12.32145996 1.96681641 12.64291992 1.43457031 12.97412109 C-1.76849083 14.32382656 -4.48087011 14.32578483 -7.953125 14.4140625 C-9.76538574 14.46747803 -9.76538574 14.46747803 -11.61425781 14.52197266 C-13.14405273 14.55597168 -14.67384766 14.5899707 -16.25 14.625 C-21.1175 14.74875 -25.985 14.8725 -31 15 C-31.33 25.56 -31.66 36.12 -32 47 C-32.66 47 -33.32 47 -34 47 C-34.83058514 35.97991499 -35.12308347 25.05016019 -35 14 C-36.98 14 -38.96 14 -41 14 C-40.97381592 15.27641357 -40.94763184 16.55282715 -40.9206543 17.86791992 C-40.83004584 22.6107424 -40.77271173 27.35348862 -40.7253418 32.09692383 C-40.70022194 34.14848706 -40.66611964 36.19996101 -40.62280273 38.2512207 C-40.56203998 41.20286091 -40.53376508 44.1533165 -40.51171875 47.10546875 C-40.48591232 48.02023483 -40.4601059 48.93500092 -40.43351746 49.87748718 C-40.43150312 54.46729061 -40.51682063 56.37362731 -43.40551758 60.1184082 C-46 62 -46 62 -48 62 C-48 62.66 -48 63.32 -48 64 C-52.62 64 -57.24 64 -62 64 C-62.33 63.34 -62.66 62.68 -63 62 C-63.99 61.67 -64.98 61.34 -66 61 C-66.33 59.02 -66.66 57.04 -67 55 C-66.278125 55.78375 -65.55625 56.5675 -64.8125 57.375 C-62.06964927 59.93499402 -60.60207141 61.14236395 -57 62 C-53.43992779 61.75333604 -53.43992779 61.75333604 -50 61 C-49.236875 60.9175 -48.47375 60.835 -47.6875 60.75 C-45.73322999 60.09554529 -45.73322999 60.09554529 -44.8125 57.625 C-44.544375 56.75875 -44.27625 55.8925 -44 55 C-43.67 54.01 -43.34 53.02 -43 52 C-42.88764839 50.66548737 -42.82424351 49.32645611 -42.79467773 47.98754883 C-42.77473251 47.18694534 -42.75478729 46.38634186 -42.73423767 45.56147766 C-42.71752518 44.70201035 -42.70081268 43.84254303 -42.68359375 42.95703125 C-42.66281265 42.0734343 -42.64203156 41.18983734 -42.62062073 40.27946472 C-42.55524246 37.45722215 -42.49629472 34.63488665 -42.4375 31.8125 C-42.39430363 29.89907894 -42.35068898 27.98566727 -42.30664062 26.07226562 C-42.19957305 21.38160563 -42.09827248 16.69085217 -42 12 C-40.76846191 11.98541748 -39.53692383 11.97083496 -38.26806641 11.95581055 C-33.70933642 11.89794348 -29.15110643 11.82071068 -24.59277344 11.73754883 C-22.61792094 11.70424472 -20.642972 11.67623003 -18.66796875 11.65356445 C-15.83291423 11.62011878 -12.998748 11.56780954 -10.1640625 11.51171875 C-8.83430893 11.50213387 -8.83430893 11.50213387 -7.47769165 11.49235535 C-6.246642 11.46266411 -6.246642 11.46266411 -4.99072266 11.43237305 C-4.26680328 11.42126999 -3.54288391 11.41016693 -2.79702759 11.39872742 C-0.58351797 11.12509493 -0.58351797 11.12509493 1 8 C1.28662433 3.85223727 1.28662433 3.85223727 0 0 Z " fill="#27E4C7" transform="translate(158,161)"/>
<path d="M0 0 C0.33 0 0.66 0 1 0 C1.06991141 10.56275227 1.12301825 21.12544831 1.15543652 31.68838596 C1.17100585 36.5946687 1.19208195 41.50079162 1.22631836 46.40698242 C1.2592266 51.15324889 1.27691843 55.89936291 1.28463173 60.64573479 C1.29011937 62.44477674 1.30083293 64.24381159 1.31719017 66.04278755 C1.5070119 87.81103857 -1.89962711 106.91765708 -17.29296875 123.46484375 C-19.16334525 125.34846185 -21.05461385 127.19430913 -23 129 C-23 128.01 -23 127.02 -23 126 C-22.484375 125.525625 -21.96875 125.05125 -21.4375 124.5625 C-20.963125 124.046875 -20.48875 123.53125 -20 123 C-20.22757731 120.83700789 -20.22757731 120.83700789 -21 119 C-16.25 116 -16.25 116 -14 116 C-14.26676204 114.01508358 -14.26676204 114.01508358 -15 112 C-15.99 111.67 -16.98 111.34 -18 111 C-16.71034824 109.62437146 -15.37310707 108.29233607 -14 107 C-13.34 107 -12.68 107 -12 107 C-12.03480469 106.22914063 -12.06960937 105.45828125 -12.10546875 104.6640625 C-12.13253906 103.66117187 -12.15960938 102.65828125 -12.1875 101.625 C-12.23970703 100.12839844 -12.23970703 100.12839844 -12.29296875 98.6015625 C-12.19628906 97.74304688 -12.09960938 96.88453125 -12 96 C-10.515 95.01 -10.515 95.01 -9 94 C-8.87625 94.969375 -8.7525 95.93875 -8.625 96.9375 C-8.315625 98.4534375 -8.315625 98.4534375 -8 100 C-7.34 100.33 -6.68 100.66 -6 101 C-6 100.34 -6 99.68 -6 99 C-5.34 99 -4.68 99 -4 99 C-4.37125 97.948125 -4.7425 96.89625 -5.125 95.8125 C-6.04276246 91.81367786 -5.91384609 90.50871784 -4 87 C-3.34 87 -2.68 87 -2 87 C-2 85.02 -2 83.04 -2 81 C-1.34 81 -0.68 81 0 81 C0 54.27 0 27.54 0 0 Z " fill="#14E0E1" transform="translate(237,132)"/>
<path d="M0 0 C1.37352479 2.74704959 0.62718469 4.15976881 -0.0625 7.125 C-1.13348879 12.55087037 -0.59702215 15.76531629 1 21 C1.125 24.5 1.125 24.5 1 27 C0.34 27 -0.32 27 -1 27 C-1.28875 26.05125 -1.5775 25.1025 -1.875 24.125 C-2.76825109 20.94788422 -2.76825109 20.94788422 -5 19 C-5 22.3 -5 25.6 -5 29 C-4.34 28.67 -3.68 28.34 -3 28 C-3.32342377 28.83963287 -3.64684753 29.67926575 -3.98007202 30.54434204 C-5.08544458 34.28949813 -5.27779111 37.39015574 -5.31884766 41.29052734 C-5.32889328 41.99366058 -5.3389389 42.69679382 -5.34928894 43.42123413 C-5.37997493 45.72612757 -5.39711497 48.03090564 -5.4140625 50.3359375 C-5.43278593 51.94162987 -5.45236021 53.54731252 -5.4727478 55.15298462 C-5.52395101 59.3647487 -5.56363969 63.57654464 -5.60089111 67.78845215 C-5.64100506 72.09212041 -5.6920636 76.39565749 -5.7421875 80.69921875 C-5.83880683 89.1327227 -5.92325608 97.56629188 -6 106 C-6.33 106 -6.66 106 -7 106 C-7.33 108.97 -7.66 111.94 -8 115 C-8.33 115 -8.66 115 -9 115 C-9.09327017 103.81989948 -9.16405137 92.63989369 -9.20724869 81.45948124 C-9.22799625 76.26622191 -9.2560752 71.07323155 -9.30175781 65.88012695 C-9.34567858 60.85503488 -9.36923318 55.83019916 -9.37950897 50.80492973 C-9.38681835 48.90146291 -9.40108779 46.99800782 -9.42292023 45.09465218 C-9.59805484 29.17226893 -8.38784152 13.99119467 0 0 Z " fill="#38DFB0" transform="translate(41,102)"/>
<path d="M0 0 C2.4375 1.5 2.4375 1.5 4 4 C4.61014545 6.8089715 4.65360928 9.19636021 4 12 C1.9375 14.5625 1.9375 14.5625 -1 16 C-5.30287623 16.07548906 -7.24611283 15.65965128 -10.5 12.8125 C-12 10 -12 10 -12 6.9375 C-9.82838684 0.55838634 -6.62067511 -0.94581073 0 0 Z " fill="#FDFDFD" transform="translate(376,132)"/>
<path d="M0 0 C1.32 0.33 2.64 0.66 4 1 C4.06058594 1.67546875 4.12117188 2.3509375 4.18359375 3.046875 C4.26738281 3.93890625 4.35117188 4.8309375 4.4375 5.75 C4.51871094 6.63171875 4.59992188 7.5134375 4.68359375 8.421875 C4.96238465 10.69350452 5.38790577 12.79851823 6 15 C4.02 15 2.04 15 0 15 C0 14.34 0 13.68 0 13 C-1.65 13.33 -3.3 13.66 -5 14 C-5 14.99 -5 15.98 -5 17 C-5.99 17 -6.98 17 -8 17 C-8.495 15.515 -8.495 15.515 -9 14 C-23.85 13.67 -38.7 13.34 -54 13 C-54 20.59 -54 28.18 -54 36 C-40.8 36 -27.6 36 -14 36 C-13.67 36.66 -13.34 37.32 -13 38 C-26.86 37.67 -40.72 37.34 -55 37 C-55 28.75 -55 20.5 -55 12 C-49.31330078 11.94392578 -49.31330078 11.94392578 -43.51171875 11.88671875 C-39.84800376 11.84053405 -36.18439219 11.78928915 -32.52075195 11.73754883 C-29.97068544 11.7042539 -27.42054441 11.67623637 -24.87036133 11.65356445 C-21.20882351 11.620103 -17.54797136 11.56779019 -13.88671875 11.51171875 C-12.7428923 11.50532883 -11.59906586 11.4989389 -10.420578 11.49235535 C-9.35970474 11.47256119 -8.29883148 11.45276703 -7.20581055 11.43237305 C-6.27093307 11.42126999 -5.3360556 11.41016693 -4.37284851 11.39872742 C-1.56272661 10.92652169 -0.64493897 10.30017317 1 8 C1.25265405 4.90498792 1.39935013 2.79870027 0 0 Z " fill="#51E2C2" transform="translate(171,123)"/>
<path d="M0 0 C0.99 0.33 1.98 0.66 3 1 C4.33106622 1.34227417 5.66400079 1.67751743 7 2 C7 3.98 7 5.96 7 8 C7.66 8 8.32 8 9 8 C9.33 12.95 9.66 17.9 10 23 C6.7 23 3.4 23 0 23 C0 15.41 0 7.82 0 0 Z " fill="#1FE8C0" transform="translate(117,136)"/>
<path d="M0 0 C1.76462683 3.08809695 2 4.23312136 2 8 C1.34 8 0.68 8 0 8 C0.33 29.12 0.66 50.24 1 72 C2.485 71.505 2.485 71.505 4 71 C4.33 72.98 4.66 74.96 5 77 C4.34 77 3.68 77 3 77 C2.34 78.32 1.68 79.64 1 81 C-1.84250769 76.73623847 -2.12872294 74.77572783 -2.14526367 69.65771484 C-2.14862228 69.00703033 -2.1519809 68.35634583 -2.15544128 67.6859436 C-2.16496428 65.52758895 -2.1668956 63.36931188 -2.16796875 61.2109375 C-2.17118231 59.70838387 -2.17454645 58.20583056 -2.17805481 56.70327759 C-2.18405078 53.54745764 -2.18589442 50.39166509 -2.18530273 47.23583984 C-2.18520152 43.20772788 -2.19880917 39.17979381 -2.21607494 35.15172386 C-2.22724417 32.04431364 -2.22922037 28.9369456 -2.22869301 25.82951736 C-2.22986743 24.34568295 -2.23425879 22.86184724 -2.24202538 21.37803268 C-2.27696697 14.00755366 -2.30422833 7.074215 0 0 Z " fill="#19E1D7" transform="translate(232,136)"/>
<path d="M0 0 C0.99 0.495 0.99 0.495 2 1 C2.01030746 1.58659897 2.02061493 2.17319794 2.03123474 2.77757263 C2.13907194 8.8603787 2.25368756 14.94302974 2.37231445 21.02563477 C2.41573665 23.29838836 2.45740616 25.57117613 2.49731445 27.84399414 C2.55484119 31.10313232 2.61858552 34.36209731 2.68359375 37.62109375 C2.70030624 38.64400009 2.71701874 39.66690643 2.73423767 40.72080994 C2.75418289 41.66170975 2.77412811 42.60260956 2.79467773 43.57202148 C2.81022202 44.40475082 2.8257663 45.23748016 2.84178162 46.09544373 C2.79428614 48.00966585 2.79428614 48.00966585 4 49 C4.08713831 50.70772358 4.10700007 52.41898649 4.09765625 54.12890625 C4.09282227 55.68061523 4.09282227 55.68061523 4.08789062 57.26367188 C4.07951172 58.35228516 4.07113281 59.44089844 4.0625 60.5625 C4.05798828 61.65498047 4.05347656 62.74746094 4.04882812 63.87304688 C4.03699826 66.58208495 4.02051543 69.29101599 4 72 C3.01 72.495 3.01 72.495 2 73 C-0.13181083 64.739403 -0.26271949 56.7294966 -0.1953125 48.2421875 C-0.19157356 46.84400639 -0.18873076 45.44582263 -0.18673706 44.04763794 C-0.17916983 40.40133183 -0.15958246 36.75518986 -0.1373291 33.10894775 C-0.11672009 29.37473774 -0.10770344 25.64050072 -0.09765625 21.90625 C-0.07632861 14.60409255 -0.04227832 7.30206944 0 0 Z " fill="#15ECB8" transform="translate(42,144)"/>
<path d="M0 0 C0.33 0 0.66 0 1 0 C1.33 22.11 1.66 44.22 2 67 C1.34 66.34 0.68 65.68 0 65 C-0.99 65 -1.98 65 -3 65 C-3.04938628 60.76417673 -3.08571263 56.52850535 -3.10986328 52.29248047 C-3.11992963 50.85104453 -3.1335838 49.40962905 -3.15087891 47.96826172 C-3.17510012 45.89806066 -3.18647641 43.82812924 -3.1953125 41.7578125 C-3.20578613 40.5114502 -3.21625977 39.26508789 -3.22705078 37.98095703 C-3 35 -3 35 -1 33 C-0.75484303 30.49624532 -0.62666342 28.09450521 -0.5859375 25.5859375 C-0.56657135 24.85629791 -0.5472052 24.12665833 -0.5272522 23.37490845 C-0.46741578 21.04172498 -0.42105577 18.70849227 -0.375 16.375 C-0.33682386 14.79424918 -0.29777235 13.21351924 -0.2578125 11.6328125 C-0.16171122 7.7553777 -0.07769588 3.87784551 0 0 Z " fill="#06E3DA" transform="translate(235,143)"/>
<path d="M0 0 C27.39 0 54.78 0 83 0 C82.34 0.99 81.68 1.98 81 3 C78.36742247 3.28644682 75.97088158 3.37843744 73.33740234 3.34057617 C72.15190544 3.34123329 72.15190544 3.34123329 70.94245911 3.34190369 C68.3233695 3.33980932 65.70491563 3.31644826 63.0859375 3.29296875 C61.2727595 3.28737509 59.45957697 3.28310391 57.64639282 3.28010559 C52.86885102 3.26863869 48.09158186 3.23915575 43.31414795 3.20599365 C38.44124032 3.17533243 33.56828874 3.16160871 28.6953125 3.14648438 C19.1300884 3.11428773 9.56506685 3.0630692 0 3 C0 2.01 0 1.02 0 0 Z " fill="#01E8B1" transform="translate(94,71)"/>
<path d="M0 0 C12.87 0 25.74 0 39 0 C39 0.33 39 0.66 39 1 C26.79 1.33 14.58 1.66 2 2 C1.98582031 5.04605469 1.97164062 8.09210938 1.95703125 11.23046875 C1.9264027 14.18606599 1.887316 17.14143899 1.84741211 20.09692383 C1.82423941 22.14827524 1.80983811 24.1997455 1.80444336 26.2512207 C1.79514857 29.2033895 1.75414636 32.15369086 1.70703125 35.10546875 C1.71293022 36.47761787 1.71293022 36.47761787 1.71894836 37.87748718 C1.6146456 42.44672884 1.46444745 44.40131323 -1.41918945 48.1184082 C-4 50 -4 50 -6 50 C-6 50.66 -6 51.32 -6 52 C-10.62 52 -15.24 52 -20 52 C-20.33 51.34 -20.66 50.68 -21 50 C-21.99 49.67 -22.98 49.34 -24 49 C-24.33 47.02 -24.66 45.04 -25 43 C-24.278125 43.78375 -23.55625 44.5675 -22.8125 45.375 C-20.06964927 47.93499402 -18.60207141 49.14236395 -15 50 C-11.43992779 49.75333604 -11.43992779 49.75333604 -8 49 C-7.236875 48.9175 -6.47375 48.835 -5.6875 48.75 C-3.73322999 48.09554529 -3.73322999 48.09554529 -2.8125 45.625 C-2.544375 44.75875 -2.27625 43.8925 -2 43 C-1.67 42.01 -1.34 41.02 -1 40 C-0.88764839 38.66548737 -0.82424351 37.32645611 -0.79467773 35.98754883 C-0.77473251 35.18694534 -0.75478729 34.38634186 -0.73423767 33.56147766 C-0.71752518 32.70201035 -0.70081268 31.84254303 -0.68359375 30.95703125 C-0.66281265 30.0734343 -0.64203156 29.18983734 -0.62062073 28.27946472 C-0.55524246 25.45722215 -0.49629472 22.63488665 -0.4375 19.8125 C-0.39430363 17.89907894 -0.35068898 15.98566727 -0.30664062 14.07226562 C-0.19878594 9.38160428 -0.09962539 4.69087227 0 0 Z " fill="#5CE1C9" transform="translate(116,173)"/>
<path d="M0 0 C15.51 0 31.02 0 47 0 C46.67 0.66 46.34 1.32 46 2 C31.15 2.33 16.3 2.66 1 3 C3.31 3.33 5.62 3.66 8 4 C7.67 4.66 7.34 5.32 7 6 C0.43983174 7.49094733 -6.30976284 7.09054456 -13 7 C-13 6.34 -13 5.68 -13 5 C-10.36 5 -7.72 5 -5 5 C-4.67 4.01 -4.34 3.02 -4 2 C-2.68 2 -1.36 2 0 2 C0 1.34 0 0.68 0 0 Z " fill="#19EABB" transform="translate(113,114)"/>
<path d="M0 0 C1.65 0 3.3 0 5 0 C3 2 1 4 -1 6 C1.95892758 5.52657159 4.09653564 4.40580306 6.625 2.875 C8.295625 1.946875 8.295625 1.946875 10 1 C10.99 1.495 10.99 1.495 12 2 C3.90312379 8.08834878 -6.91717389 14.14393791 -17.2878418 14.11352539 C-18.14850754 14.11344986 -19.00917328 14.11337433 -19.8959198 14.11329651 C-20.82100845 14.10813522 -21.74609711 14.10297394 -22.69921875 14.09765625 C-23.64940384 14.0962413 -24.59958893 14.09482635 -25.5785675 14.09336853 C-28.61491029 14.08776875 -31.65117948 14.07521632 -34.6875 14.0625 C-36.74544164 14.05748497 -38.80338444 14.05292207 -40.86132812 14.04882812 C-45.90758046 14.0377994 -50.95377775 14.02053493 -56 14 C-56 13.67 -56 13.34 -56 13 C-55.04633545 12.97494385 -54.0926709 12.9498877 -53.11010742 12.92407227 C-49.57090893 12.82987929 -46.03190125 12.72968769 -42.49291992 12.62768555 C-40.96138982 12.58438167 -39.42981285 12.54270333 -37.89819336 12.50268555 C-35.69630818 12.44487268 -33.49465789 12.38121031 -31.29296875 12.31640625 C-30.60849167 12.29969376 -29.92401459 12.28298126 -29.21879578 12.26576233 C-26.22879896 12.1726445 -23.85937689 11.95312563 -21 11 C-18.99787771 11.32033957 -16.99760305 11.65259077 -15 12 C-14.67 11.67 -14.34 11.34 -14 11 C-11.66702567 10.95907063 -9.33294775 10.95758277 -7 11 C-7 10.01 -7 9.02 -7 8 C-6.01 8 -5.02 8 -4 8 C-4.99 7.34 -5.98 6.68 -7 6 C-7 5.34 -7 4.68 -7 4 C-6.01 4 -5.02 4 -4 4 C-4 3.34 -4 2.68 -4 2 C-2.68 2 -1.36 2 0 2 C0 1.34 0 0.68 0 0 Z " fill="#3BE2DD" transform="translate(200,260)"/>
<path d="M0 0 C0.66 0.33 1.32 0.66 2 1 C1.67435562 1.71629074 1.34871124 2.43258148 1.01319885 3.170578 C-0.03730118 6.10416592 -0.2368539 8.17269416 -0.21118164 11.27075195 C-0.20780289 12.29985184 -0.20442413 13.32895172 -0.20094299 14.38923645 C-0.18748337 15.49442123 -0.17402374 16.59960602 -0.16015625 17.73828125 C-0.15495468 18.89184616 -0.14975311 20.04541107 -0.14439392 21.2339325 C-0.12659944 24.92691684 -0.09550008 28.61962265 -0.0625 32.3125 C-0.02569294 37.14190626 0.00464709 41.97128787 0.02734375 46.80078125 C0.03572769 48.53426315 0.03572769 48.53426315 0.04428101 50.30276489 C0.05951931 58.90792102 -0.2502939 67.42684156 -1 76 C-1.33 76 -1.66 76 -2 76 C-2.04627741 66.38615582 -2.08184573 56.77234979 -2.10362434 47.15841866 C-2.11407534 42.69460245 -2.12825844 38.23086228 -2.15087891 33.76708984 C-2.17256052 29.46179326 -2.1845587 25.15656995 -2.18975449 20.85122299 C-2.19345869 19.20612306 -2.20069177 17.56102727 -2.21146011 15.9159584 C-2.22591299 13.61722296 -2.22798058 11.31879287 -2.22705078 9.02001953 C-2.231492 7.7098587 -2.23593323 6.39969788 -2.24050903 5.04983521 C-2 2 -2 2 0 0 Z " fill="#1AECB8" transform="translate(37,132)"/>
<path d="M0 0 C0.85919037 -0.00014603 1.71838074 -0.00029205 2.60360718 -0.0004425 C5.42798434 0.0002511 8.25229459 0.00801759 11.07666016 0.01586914 C13.04106612 0.01773528 15.00547255 0.01915826 16.96987915 0.02015686 C22.12865494 0.0239666 27.28740237 0.03378368 32.44616699 0.04486084 C37.71492123 0.05510818 42.98368007 0.05966159 48.25244141 0.06469727 C58.58188092 0.07540736 68.91129942 0.09246521 79.24072266 0.11352539 C79.24072266 0.44352539 79.24072266 0.77352539 79.24072266 1.11352539 C78.19058487 1.12383286 77.14044708 1.13414032 76.05848694 1.14476013 C66.18420555 1.2423208 56.30998964 1.34503797 46.43581486 1.45286465 C41.35884382 1.50813813 36.28186707 1.56156506 31.20483398 1.61083984 C26.30946602 1.6584183 21.41417044 1.71075847 16.51888847 1.76646614 C14.64691395 1.78691934 12.77491955 1.8056274 10.90291023 1.82259941 C8.29026189 1.84657807 5.67775168 1.87664113 3.06518555 1.90820312 C2.28331879 1.91395859 1.50145203 1.91971405 0.69589233 1.92564392 C-2.82603962 1.65445965 -2.82603962 1.65445965 -5.75927734 3.11352539 C-7.48566659 3.27234144 -9.21587664 3.39041766 -10.94677734 3.48852539 C-15.59734121 3.8550427 -18.63002734 4.90485678 -22.75927734 7.11352539 C-26.13427734 7.30102539 -26.13427734 7.30102539 -28.75927734 7.11352539 C-27.75927734 5.11352539 -27.75927734 5.11352539 -25.02880859 4.07836914 C-23.88798828 3.7393457 -22.74716797 3.40032227 -21.57177734 3.05102539 C-20.44384766 2.70942383 -19.31591797 2.36782227 -18.15380859 2.01586914 C-12.01498627 0.3840303 -6.30888508 -0.02830696 0 0 Z " fill="#59DDB2" transform="translate(98.75927734375,69.886474609375)"/>
<path d="M0 0 C0.99 0.66 1.98 1.32 3 2 C3.4375 4.875 3.4375 4.875 3 8 C0.96844991 10.59736118 -0.2164597 11.84882412 -3.49310303 12.48101807 C-4.42575989 12.47213562 -5.35841675 12.46325317 -6.31933594 12.45410156 C-7.38013367 12.45379944 -8.4409314 12.45349731 -9.53387451 12.45318604 C-10.67253967 12.43254089 -11.81120483 12.41189575 -12.984375 12.390625 C-14.15510559 12.38496521 -15.32583618 12.37930542 -16.53204346 12.37347412 C-20.271778 12.35108125 -24.01055497 12.3008768 -27.75 12.25 C-30.28514242 12.22993889 -32.82029985 12.21168744 -35.35546875 12.1953125 C-41.57063929 12.15120678 -47.78525124 12.08426454 -54 12 C-54 11.34 -54 10.68 -54 10 C-36.51 10 -19.02 10 -1 10 C-1 9.01 -1 8.02 -1 7 C-0.34 7 0.32 7 1 7 C0.505 3.535 0.505 3.535 0 0 Z " fill="#C3FDF1" transform="translate(170,123)"/>
<path d="M0 0 C5.70894148 -0.58254505 10.39700785 0.52469121 15.8125 2.3125 C16.47064697 2.52543701 17.12879395 2.73837402 17.80688477 2.95776367 C21.18601808 4.12350605 23.75390146 5.15271523 26 8 C24.35 8 22.7 8 21 8 C21 8.66 21 9.32 21 10 C18.625 10.1875 18.625 10.1875 16 10 C15.34 9.01 14.68 8.02 14 7 C14 7.66 14 8.32 14 9 C12.68 8.67 11.36 8.34 10 8 C8.875 4.25 8.875 4.25 10 2 C8.3603125 3.0209375 8.3603125 3.0209375 6.6875 4.0625 C4.82421875 5.22265625 4.82421875 5.22265625 3 6 C2.01 5.67 1.02 5.34 0 5 C0 4.34 0 3.68 0 3 C1.32 3 2.64 3 4 3 C4 2.34 4 1.68 4 1 C2.68 0.67 1.36 0.34 0 0 Z " fill="#2BE6C0" transform="translate(178,71)"/>
<path d="M0 0 C0.66 0 1.32 0 2 0 C2.66 1.98 3.32 3.96 4 6 C8.95 4.515 8.95 4.515 14 3 C14.33 5.31 14.66 7.62 15 10 C12.83125748 9.49396008 11.00032373 9.00016187 9 8 C9.33 9.32 9.66 10.64 10 12 C12.60582371 12.93065133 13.64198224 13.14917407 16.25 12.0625 C16.8275 11.711875 17.405 11.36125 18 11 C20 13 20 13 20 16 C17.525 15.505 17.525 15.505 15 15 C15 15.99 15 16.98 15 18 C9.60465405 17.17176707 7.15478225 13.12829974 4 9 C0 2.98250729 0 2.98250729 0 0 Z " fill="#30E6C5" transform="translate(39,238)"/>
<path d="M0 0 C0.33 0 0.66 0 1 0 C1.04652837 10.61458852 1.08197277 21.2291524 1.10362434 31.84382248 C1.11402079 36.77368547 1.12810362 41.70347821 1.15087891 46.63330078 C1.17275586 51.3989963 1.18459968 56.16462463 1.18975449 60.93036652 C1.19342376 62.74024766 1.20058821 64.55012551 1.21146011 66.35997772 C1.26763668 76.10751137 1.11946269 85.42479294 -1 95 C-1.33 95 -1.66 95 -2 95 C-2.77916092 89.97874074 -3.13016601 86.02296004 -2 81 C-1.34 81 -0.68 81 0 81 C0 54.27 0 27.54 0 0 Z " fill="#5BD0CE" transform="translate(237,132)"/>
<path d="M0 0 C2.94789594 4.4218439 4.35384077 6.74610461 3.6875 12.125 C3.58824219 12.99382812 3.48898438 13.86265625 3.38671875 14.7578125 C3 17 3 17 2 19 C1.01 19 0.02 19 -1 19 C-0.05066101 22.35433109 0.89748835 25.69246505 2 29 C1.34 29.33 0.68 29.66 0 30 C-2.70533406 23.26812223 -4.52432875 17.25398658 -5 10 C-2.2160817 11.39195915 -2.02101003 13.15575779 -1 16 C-1.01160156 14.92878906 -1.02320313 13.85757813 -1.03515625 12.75390625 C-1.04453299 11.35677257 -1.05363331 9.95963701 -1.0625 8.5625 C-1.07506836 7.50192383 -1.07506836 7.50192383 -1.08789062 6.41992188 C-1.09653588 4.61306441 -1.05220011 2.80612397 -1 1 C-0.67 0.67 -0.34 0.34 0 0 Z " fill="#1DE9BF" transform="translate(38,208)"/>
<path d="M0 0 C-0.375 1.9375 -0.375 1.9375 -1 4 C-1.99 4.495 -1.99 4.495 -3 5 C-3.33 5.99 -3.66 6.98 -4 8 C-4.57363281 7.77957031 -5.14726563 7.55914062 -5.73828125 7.33203125 C-8.05039318 6.76963 -8.05039318 6.76963 -10.10546875 8.07421875 C-10.79253906 8.60660156 -11.47960938 9.13898438 -12.1875 9.6875 C-12.88230469 10.20699219 -13.57710937 10.72648437 -14.29296875 11.26171875 C-16.20709889 13.21089018 -16.454391 14.38653288 -17 17 C-19.0625 18.25 -19.0625 18.25 -21 19 C-21 20.98 -21 22.96 -21 25 C-23.49092811 26.24546405 -24.41080733 25.7767578 -27 25 C-24.13775634 16.67883802 -9.91752533 0 0 0 Z " fill="#54E5AE" transform="translate(69,77)"/>
<path d="M0 0 C5.875 3.625 5.875 3.625 7 7 C7.47469459 14.05061082 7.47469459 14.05061082 6 17 C3.5625 16.625 3.5625 16.625 1 16 C-0.50156874 12.99686252 -0.09281204 10.20932478 -0.0625 6.875 C-0.05347656 5.59367188 -0.04445313 4.31234375 -0.03515625 2.9921875 C-0.02355469 2.00476563 -0.01195313 1.01734375 0 0 Z " fill="#02EBBF" transform="translate(117,139)"/>
<path d="M0 0 C0.66 0.33 1.32 0.66 2 1 C2 1.66 2 2.32 2 3 C1.34 3 0.68 3 0 3 C-0.33 3.99 -0.66 4.98 -1 6 C-0.34 6 0.32 6 1 6 C1 6.99 1 7.98 1 9 C-2.18653275 11.80699535 -5.63102619 13.8809588 -9.875 14.25 C-10.57625 14.1675 -11.2775 14.085 -12 14 C-12.99 14.495 -12.99 14.495 -14 15 C-13.34 13.68 -12.68 12.36 -12 11 C-11.01 11 -10.02 11 -9 11 C-9 10.29875 -9 9.5975 -9 8.875 C-7.44766762 4.41204442 -3.83510003 2.54217337 0 0 Z " fill="#15F1AC" transform="translate(61,83)"/>
<path d="M0 0 C1.32 0.33 2.64 0.66 4 1 C3.67 11.56 3.34 22.12 3 33 C2.34 33 1.68 33 1 33 C0.16941486 21.97991499 -0.12308347 11.05016019 0 0 Z " fill="#1DE6C7" transform="translate(123,175)"/>
<path d="M0 0 C4.95 0 9.9 0 15 0 C15 1.65 15 3.3 15 5 C9.72 5 4.44 5 -1 5 C-0.67 3.35 -0.34 1.7 0 0 Z " fill="#17E8C4" transform="translate(129,154)"/>
<path d="M0 0 C0.99 0.33 1.98 0.66 3 1 C4.1875 4.0625 4.1875 4.0625 5 7 C5.33 5.02 5.66 3.04 6 1 C6.33 1 6.66 1 7 1 C7.66 5.29 8.32 9.58 9 14 C7.35 15.32 5.7 16.64 4 18 C1.42113193 11.94526627 0.38979206 6.55925943 0 0 Z " fill="#2EE4D0" transform="translate(229,118)"/>
<path d="M0 0 C2.31 0.33 4.62 0.66 7 1 C7 1.66 7 2.32 7 3 C9.31 3 11.62 3 14 3 C14 2.34 14 1.68 14 1 C14.66 1 15.32 1 16 1 C15.34 3.97 14.68 6.94 14 10 C13.34 10 12.68 10 12 10 C11.34 9.34 10.68 8.68 10 8 C9.34 8 8.68 8 8 8 C8 7.34 8 6.68 8 6 C6.35 6 4.7 6 3 6 C3 5.34 3 4.68 3 4 C2.34 4 1.68 4 1 4 C0.67 2.68 0.34 1.36 0 0 Z " fill="#16E6CC" transform="translate(64,261)"/>
<path d="M0 0 C0.6796875 1.6484375 0.6796875 1.6484375 1 4 C-3.07895257 13.72673305 -10.38060074 22.90999556 -19 29 C-17.84826645 26.53199953 -16.95216435 24.95216435 -15 23 C-15.3185177 20.89179203 -15.3185177 20.89179203 -16 19 C-11.25 16 -11.25 16 -9 16 C-6.98821609 13.66633067 -5.98404829 11.95214486 -5 9 C-4.34 9 -3.68 9 -3 9 C-2.87625 8.443125 -2.7525 7.88625 -2.625 7.3125 C-1.94023145 4.77885636 -1.00866237 2.42078968 0 0 Z " fill="#55E6E2" transform="translate(232,232)"/>
<path d="M0 0 C-2.27364177 2.42999536 -3.68273845 3.42805835 -7 4 C-6.67 4.66 -6.34 5.32 -6 6 C-8.35438733 7.42944945 -9.48032433 8.08661261 -12.25 7.625 C-12.8275 7.41875 -13.405 7.2125 -14 7 C-14 6.34 -14 5.68 -14 5 C-15.65 5.66 -17.3 6.32 -19 7 C-19.66 6.34 -20.32 5.68 -21 5 C-13.7355197 1.55828345 -8.08330939 -0.67360912 0 0 Z " fill="#09F2AD" transform="translate(91,73)"/>
<path d="M0 0 C3.64134049 1.50082277 5.68756186 3.60620562 8.25 6.5625 C8.95640625 7.36816406 9.6628125 8.17382812 10.390625 9.00390625 C12 11 12 11 12 12 C10.35 12 8.7 12 7 12 C6.67 11.01 6.34 10.02 6 9 C4.68 9 3.36 9 2 9 C1.67 9.99 1.34 10.98 1 12 C0.34 12 -0.32 12 -1 12 C-0.690625 10.824375 -0.690625 10.824375 -0.375 9.625 C-0.25125 8.75875 -0.1275 7.8925 0 7 C-0.66 6.34 -1.32 5.68 -2 5 C-1.34 4.67 -0.68 4.34 0 4 C0 2.68 0 1.36 0 0 Z " fill="#2CE5C7" transform="translate(213,85)"/>
<path d="M0 0 C1.55521173 0.00031721 3.11044535 0.0116478 4.66552734 0.03173828 C5.89316299 0.03598312 5.89316299 0.03598312 7.14559937 0.04031372 C9.76436877 0.05152546 12.38279848 0.07663149 15.00146484 0.10205078 C16.77489741 0.11207931 18.54833533 0.12120538 20.32177734 0.12939453 C24.6734711 0.151468 29.02491034 0.18600434 33.37646484 0.22705078 C33.87146484 1.21705078 33.87146484 1.21705078 34.37646484 2.22705078 C29.02332425 3.00034006 24.020013 3.30282471 18.59521484 3.10595703 C17.89626099 3.08234604 17.19730713 3.05873505 16.47717285 3.03440857 C14.27667904 2.95872768 12.076626 2.87430238 9.87646484 2.78955078 C8.37127703 2.73623394 6.86606865 2.68349448 5.36083984 2.63134766 C1.69912021 2.50324512 -1.96225854 2.36730643 -5.62353516 2.22705078 C-3.62353516 0.22705078 -3.62353516 0.22705078 0 0 Z " fill="#16EBBB" transform="translate(149.62353515625,77.77294921875)"/>
<path d="M0 0 C1.875 0.3125 1.875 0.3125 4 1 C4.66 1.99 5.32 2.98 6 4 C7.010625 4.33 8.02125 4.66 9.0625 5 C10.5165625 5.495 10.5165625 5.495 12 6 C12.33 6.99 12.66 7.98 13 9 C13.66 9 14.32 9 15 9 C15 9.66 15 10.32 15 11 C16.65 11 18.3 11 20 11 C20 11.66 20 12.32 20 13 C20.99 12.67 21.98 12.34 23 12 C23.33 12.99 23.66 13.98 24 15 C26.64 15.33 29.28 15.66 32 16 C26.32000015 17.9019004 21.31202047 14.9838385 16.0625 12.75 C3.92181911 5.81246806 3.92181911 5.81246806 0 0 Z " fill="#4EE5CA" transform="translate(52,256)"/>
<path d="M0 0 C1.65 0 3.3 0 5 0 C3 2 1 4 -1 6 C1.95892758 5.52657159 4.09653564 4.40580306 6.625 2.875 C7.73875 2.25625 8.8525 1.6375 10 1 C10.66 1.33 11.32 1.66 12 2 C2.20053752 9.12094273 2.20053752 9.12094273 -3 9 C-5.375 7.6875 -5.375 7.6875 -7 6 C-7 5.34 -7 4.68 -7 4 C-6.01 4 -5.02 4 -4 4 C-4 3.34 -4 2.68 -4 2 C-2.68 2 -1.36 2 0 2 C0 1.34 0 0.68 0 0 Z " fill="#19E0E1" transform="translate(200,260)"/>
<path d="M0 0 C1.32 0.66 2.64 1.32 4 2 C2.66666667 4.66666667 1.33333333 7.33333333 0 10 C0.66 10.33 1.32 10.66 2 11 C1.34 12.32 0.68 13.64 0 15 C0 13.68 0 12.36 0 11 C-1.65 11.33 -3.3 11.66 -5 12 C-5.33 11.01 -5.66 10.02 -6 9 C-5.38125 8.443125 -4.7625 7.88625 -4.125 7.3125 C-1.93893621 4.93354822 -1.01214301 3.03642904 0 0 Z " fill="#22EBB7" transform="translate(91,113)"/>
<path d="M0 0 C0.99 0 1.98 0 3 0 C4.06723961 3.46222615 4.10173486 6.64039266 4.0625 10.25 C4.05347656 11.32765625 4.04445313 12.4053125 4.03515625 13.515625 C4.02355469 14.33546875 4.01195312 15.1553125 4 16 C3.34 16.33 2.68 16.66 2 17 C1.566875 15.576875 1.566875 15.576875 1.125 14.125 C0.23174891 10.94788422 0.23174891 10.94788422 -2 9 C-1.7578125 6.8359375 -1.7578125 6.8359375 -1.125 4.375 C-0.92132813 3.55773437 -0.71765625 2.74046875 -0.5078125 1.8984375 C-0.34023438 1.27195313 -0.17265625 0.64546875 0 0 Z " fill="#07EEC0" transform="translate(34,208)"/>
<path d="M0 0 C1.32 0.33 2.64 0.66 4 1 C4.06058594 1.67546875 4.12117187 2.3509375 4.18359375 3.046875 C4.26738281 3.93890625 4.35117188 4.8309375 4.4375 5.75 C4.55931641 7.07257813 4.55931641 7.07257813 4.68359375 8.421875 C4.96238465 10.69350452 5.38790577 12.79851823 6 15 C4.02 15 2.04 15 0 15 C0 14.34 0 13.68 0 13 C-0.99 12.67 -1.98 12.34 -3 12 C-2.34 11.46375 -1.68 10.9275 -1 10.375 C1.28566853 8.11454281 1.28566853 8.11454281 1.3125 4.875 C1.17528074 2.06060827 1.17528074 2.06060827 0 0 Z " fill="#41E3C6" transform="translate(171,123)"/>
<path d="M0 0 C0.33 0 0.66 0 1 0 C1.07654536 4.51617599 1.10228696 8.59085217 0 13 C-0.99 12.67 -1.98 12.34 -3 12 C-3 13.65 -3 15.3 -3 17 C-3.66 17 -4.32 17 -5 17 C-5.33 15.02 -5.66 13.04 -6 11 C-5.34 10.67 -4.68 10.34 -4 10 C-3.34227572 6.97065509 -3.34227572 6.97065509 -3 4 C-2.34 4 -1.68 4 -1 4 C-0.67 2.68 -0.34 1.36 0 0 Z " fill="#21E4CC" transform="translate(121,208)"/>
<path d="M0 0 C0.66 0.33 1.32 0.66 2 1 C1.67402832 1.6705542 1.34805664 2.3411084 1.01220703 3.03198242 C-0.22634385 6.66369082 -0.22587565 9.652606 -0.1953125 13.48828125 C-0.1924826 14.19147995 -0.18965271 14.89467865 -0.18673706 15.6191864 C-0.17560151 17.85046892 -0.15050997 20.08134017 -0.125 22.3125 C-0.1149616 23.83137438 -0.10583726 25.3502551 -0.09765625 26.86914062 C-0.07568413 30.57955921 -0.04120047 34.28973942 0 38 C-0.33 38 -0.66 38 -1 38 C-1.1921167 32.91004659 -1.3708613 27.81986803 -1.53710938 22.72900391 C-1.59558661 20.99645329 -1.65774663 19.26402297 -1.72363281 17.53173828 C-1.81758626 15.04481912 -1.89838011 12.55777111 -1.9765625 10.0703125 C-2.00875885 9.29317902 -2.0409552 8.51604553 -2.0741272 7.71536255 C-2.12744129 5.81082754 -2.07291252 3.90388544 -2 2 C-1.34 1.34 -0.68 0.68 0 0 Z " fill="#11EFB1" transform="translate(37,132)"/>
<path d="M0 0 C0.99 0.33 1.98 0.66 3 1 C3 1.99 3 2.98 3 4 C2.34 4.66 1.68 5.32 1 6 C1.66 7.65 2.32 9.3 3 11 C2.01 11.33 1.02 11.66 0 12 C-0.66 11.67 -1.32 11.34 -2 11 C-2.33 11.66 -2.66 12.32 -3 13 C-3.93045933 10.44855176 -4.08564091 9.25993522 -3.22265625 6.640625 C-2.83980469 5.85171875 -2.45695312 5.0628125 -2.0625 4.25 C-1.68222656 3.45078125 -1.30195312 2.6515625 -0.91015625 1.828125 C-0.60980469 1.22484375 -0.30945312 0.6215625 0 0 Z " fill="#19E9C0" transform="translate(46,220)"/>
<path d="M0 0 C3.11906238 3.63550844 5.28722175 7.22548976 7.3125 11.5625 C7.84488281 12.67753906 8.37726563 13.79257813 8.92578125 14.94140625 C9.99026344 17.97227736 10.21351913 19.09748932 9 22 C8.15615325 20.58957044 7.32530504 19.17135868 6.5 17.75 C6.0359375 16.96109375 5.571875 16.1721875 5.09375 15.359375 C4 13 4 13 4 9 C3.34 9 2.68 9 2 9 C1.34 6.03 0.68 3.06 0 0 Z " fill="#4FE2CA" transform="translate(225,97)"/>
<path d="M0 0 C0.99 0.495 0.99 0.495 2 1 C2.625 4.0625 2.625 4.0625 3 7 C3.99 7.33 4.98 7.66 6 8 C5.01 8.495 5.01 8.495 4 9 C4.94933899 12.35433109 5.89748835 15.69246505 7 19 C6.34 19.33 5.68 19.66 5 20 C2.29466594 13.26812223 0.47567125 7.25398658 0 0 Z " fill="#4CE5C4" transform="translate(33,218)"/>
<path d="M0 0 C1.98 0 3.96 0 6 0 C6 2.64 6 5.28 6 8 C4.35 8 2.7 8 1 8 C0.67 5.36 0.34 2.72 0 0 Z " fill="#15E6C8" transform="translate(160,160)"/>
<path d="M0 0 C2.14915785 3.22373677 2.38286803 4.26703674 2 8 C1.34 8.66 0.68 9.32 0 10 C-0.6425235 12.06874034 -0.6425235 12.06874034 -1 14 C-1.99 13.67 -2.98 13.34 -4 13 C-3.27991594 8.39146203 -1.68704061 4.32762591 0 0 Z " fill="#17EFAC" transform="translate(47,102)"/>
<path d="M0 0 C2.475 0.495 2.475 0.495 5 1 C5 2.32 5 3.64 5 5 C5.99 5.33 6.98 5.66 8 6 C7.67 7.32 7.34 8.64 7 10 C6.34 10 5.68 10 5 10 C2.60268669 6.80358226 0.61520275 3.99881788 0 0 Z " fill="#1FE6C6" transform="translate(57,239)"/>
<path d="M0 0 C3 1 3 1 4 3 C3.91348369 4.54613014 3.75997364 6.08909387 3.5625 7.625 C3.46066406 8.44226563 3.35882813 9.25953125 3.25390625 10.1015625 C3.17011719 10.72804687 3.08632812 11.35453125 3 12 C1.68 11.67 0.36 11.34 -1 11 C-0.37240135 8.07120629 0.58622659 5.63904371 2 3 C1.01 2.67 0.02 2.34 -1 2 C-0.67 1.34 -0.34 0.68 0 0 Z " fill="#19ECB7" transform="translate(80,125)"/>
<path d="M0 0 C0.66 0.33 1.32 0.66 2 1 C-0.38377394 3.7601593 -2.46665639 5.05777504 -6 6 C-8.86593452 6.00551141 -11.14896673 5.60759725 -14 5 C-14.66 4.01 -15.32 3.02 -16 2 C-15.26394531 2.10699219 -14.52789062 2.21398437 -13.76953125 2.32421875 C-6.4249981 3.31599337 -6.4249981 3.31599337 0 0 Z " fill="#D5FDF9" transform="translate(111,218)"/>
<path d="M0 0 C6.625 -0.25 6.625 -0.25 10 2 C4.89665983 3.905247 0.53657294 5.42589023 -5 5 C-4.360625 4.731875 -3.72125 4.46375 -3.0625 4.1875 C-0.66868314 3.11332248 -0.66868314 3.11332248 0 0 Z " fill="#1CEBB7" transform="translate(101,111)"/>
<path d="M0 0 C3.95820859 0.56545837 6.6659053 1.80902348 10 4 C9.34 5.32 8.68 6.64 8 8 C7.62875 7.54625 7.2575 7.0925 6.875 6.625 C4.45735315 4.52970606 2.04569398 3.87986715 -1 3 C-0.67 2.01 -0.34 1.02 0 0 Z " fill="#1FE7C4" transform="translate(167,114)"/>
<path d="M0 0 C0.66 0 1.32 0 2 0 C2.33872513 1.41538717 2.67074624 2.83237963 3 4.25 C3.185625 5.03890625 3.37125 5.8278125 3.5625 6.640625 C4 9 4 9 4 13 C3.01 13 2.02 13 1 13 C-0.00496852 9.98509443 -0.10335303 7.95818308 -0.0625 4.8125 C-0.05347656 3.91144531 -0.04445313 3.01039063 -0.03515625 2.08203125 C-0.02355469 1.39496094 -0.01195313 0.70789063 0 0 Z " fill="#1CE4CC" transform="translate(124,212)"/>
<path d="M0 0 C1.32 0 2.64 0 4 0 C3.52354792 4.28806873 2.34097516 6.26647487 -1 9 C-1.66 9 -2.32 9 -3 9 C-2.30058404 5.85262818 -1.23921302 2.97411124 0 0 Z " fill="#17EEB4" transform="translate(83,111)"/>
<path d="M0 0 C1.32 0.33 2.64 0.66 4 1 C1.36 3.64 -1.28 6.28 -4 9 C-4.66 8.67 -5.32 8.34 -6 8 C-4.56036361 4.64084842 -2.87583411 2.28375062 0 0 Z " fill="#1DDEE1" transform="translate(213,240)"/>
<path d="M0 0 C2.0625 1.75 2.0625 1.75 4 4 C4 7.03822316 2.99700998 8.00326184 0.9375 10.25 C0.298125 10.8275 -0.34125 11.405 -1 12 C-1.02687279 10.18757948 -1.04633715 8.37504767 -1.0625 6.5625 C-1.07410156 5.55316406 -1.08570313 4.54382813 -1.09765625 3.50390625 C-1 1 -1 1 0 0 Z " fill="#02F2AD" transform="translate(36,120)"/>
<path d="M0 0 C8.57142857 -0.28571429 8.57142857 -0.28571429 12 2 C10.75336669 2.50833591 9.50250613 3.00631145 8.25 3.5 C7.55390625 3.7784375 6.8578125 4.056875 6.140625 4.34375 C4 5 4 5 0 5 C0 4.34 0 3.68 0 3 C1.32 3 2.64 3 4 3 C4 2.34 4 1.68 4 1 C2.68 0.67 1.36 0.34 0 0 Z " fill="#40E0BC" transform="translate(178,71)"/>
<path d="M0 0 C2.64 0 5.28 0 8 0 C5.53908406 2.46091594 3.481204 3.02845243 0.1875 4.125 C-0.85019531 4.47820312 -1.88789063 4.83140625 -2.95703125 5.1953125 C-5.80485601 5.94839581 -8.07575626 6.16215769 -11 6 C-8.28817788 3.39665076 -7.10866187 3.00543309 -3.25 2.8125 C-2.1775 2.874375 -1.105 2.93625 0 3 C0 2.01 0 1.02 0 0 Z " fill="#51E1DB" transform="translate(193,268)"/>
<path d="M0 0 C0.33 0.99 0.66 1.98 1 3 C1.66 3 2.32 3 3 3 C3 3.99 3 4.98 3 6 C0.04335481 7.4783226 -2.74229737 7.06032783 -6 7 C-5.67 6.01 -5.34 5.02 -5 4 C-3.66666667 3.66666667 -2.33333333 3.33333333 -1 3 C-0.67 2.01 -0.34 1.02 0 0 Z " fill="#1EDEDF" transform="translate(211,251)"/>
<path d="M0 0 C1.65 0.33 3.3 0.66 5 1 C5 1.66 5 2.32 5 3 C5.99 3 6.98 3 8 3 C8 3.66 8 4.32 8 5 C5.33333333 4.33333333 2.66666667 3.66666667 0 3 C0 3.66 0 4.32 0 5 C-1.32 5 -2.64 5 -4 5 C-4 4.34 -4 3.68 -4 3 C-3.01 3 -2.02 3 -1 3 C-0.67 2.01 -0.34 1.02 0 0 Z " fill="#20E4CA" transform="translate(73,255)"/>
<path d="M0 0 C0.66 0.33 1.32 0.66 2 1 C2.05395478 2.62463842 2.09277195 4.24978541 2.125 5.875 C2.14820313 6.77992188 2.17140625 7.68484375 2.1953125 8.6171875 C2 11 2 11 0 13 C-2.21538462 5.73846154 -2.21538462 5.73846154 -1.125 2 C-0.75375 1.34 -0.3825 0.68 0 0 Z " fill="#27E0DE" transform="translate(233,219)"/>
<path d="M0 0 C1.32 0.33 2.64 0.66 4 1 C4 2.98 4 4.96 4 7 C2.68 7.33 1.36 7.66 0 8 C0 5.36 0 2.72 0 0 Z " fill="#13EFB0" transform="translate(42,132)"/>
<path d="M0 0 C0.66 0.33 1.32 0.66 2 1 C2 1.66 2 2.32 2 3 C1.34 3 0.68 3 0 3 C-0.45375 3.825 -0.9075 4.65 -1.375 5.5 C-1.91125 6.325 -2.4475 7.15 -3 8 C-4.32 8 -5.64 8 -7 8 C-6.875 6.25 -6.875 6.25 -6 4 C-2.9375 1.75 -2.9375 1.75 0 0 Z " fill="#04F3AB" transform="translate(61,83)"/>
<path d="M0 0 C2.53570625 5.07141251 3.37907607 7.48369572 2 13 C1.34 12.67 0.68 12.34 0 12 C0 8.04 0 4.08 0 0 Z " fill="#18DFE2" transform="translate(226,212)"/>
<path d="M0 0 C0.99 0.33 1.98 0.66 3 1 C3 1.99 3 2.98 3 4 C3.31421071 6.00309329 3.6451046 8.00371336 4 10 C3.34 10 2.68 10 2 10 C-0.17364926 7.18230651 -1.08677021 5.7809319 -0.6875 2.1875 C-0.460625 1.465625 -0.23375 0.74375 0 0 Z " fill="#1EE6CB" transform="translate(224,106)"/>
<path d="M0 0 C0.66 0 1.32 0 2 0 C2.33 1.98 2.66 3.96 3 6 C0.50907189 7.24546405 -0.41080733 6.7767578 -3 6 C-1.125 1.125 -1.125 1.125 0 0 Z " fill="#3AEAAF" transform="translate(45,96)"/>
<path d="M0 0 C0.66 0 1.32 0 2 0 C2.33 2.31 2.66 4.62 3 7 C1.68 6.67 0.36 6.34 -1 6 C-1.042721 4.33388095 -1.04063832 2.66617115 -1 1 C-0.67 0.67 -0.34 0.34 0 0 Z " fill="#24E7C5" transform="translate(51,241)"/>
<path d="M0 0 C2 3 2 3 2 6 C1.34 6 0.68 6 0 6 C-0.66 7.32 -1.32 8.64 -2 10 C-3.39195915 5.82412255 -1.82323219 3.86525224 0 0 Z " fill="#0FE1DE" transform="translate(235,207)"/>
<path d="M0 0 C1.485 0.99 1.485 0.99 3 2 C3.4375 4.9375 3.4375 4.9375 3 8 C1 9.875 1 9.875 -1 11 C-1 9.68 -1 8.36 -1 7 C-0.34 7 0.32 7 1 7 C0.67 4.69 0.34 2.38 0 0 Z " fill="#D3FEF9" transform="translate(170,123)"/>
<path d="M0 0 C0.66 0 1.32 0 2 0 C1.67 4.62 1.34 9.24 1 14 C0.67 14 0.34 14 0 14 C-0.77916092 8.97874074 -1.13016601 5.02296004 0 0 Z " fill="#4BDDD9" transform="translate(235,213)"/>
<path d="M0 0 C0.66 0 1.32 0 2 0 C3.2077558 3.62326739 2.54311128 4.64146369 1 8 C0.34 7.67 -0.32 7.34 -1 7 C-1.04254356 5.00045254 -1.04080783 2.99958364 -1 1 C-0.67 0.67 -0.34 0.34 0 0 Z " fill="#1CE4CE" transform="translate(224,121)"/>
<path d="M0 0 C1.27351308 2.54702616 0.80191925 3.4282945 0.0625 6.125 C-0.13214844 6.84945312 -0.32679687 7.57390625 -0.52734375 8.3203125 C-0.68332031 8.87460938 -0.83929688 9.42890625 -1 10 C-1.99 10 -2.98 10 -4 10 C-3.52449439 8.51965236 -3.04448784 7.04074979 -2.5625 5.5625 C-2.29566406 4.73878906 -2.02882812 3.91507812 -1.75390625 3.06640625 C-1 1 -1 1 0 0 Z " fill="#51E3AF" transform="translate(41,102)"/>
<path d="M0 0 C-0.375 1.9375 -0.375 1.9375 -1 4 C-1.99 4.495 -1.99 4.495 -3 5 C-3.33 5.99 -3.66 6.98 -4 8 C-4.66 7.67 -5.32 7.34 -6 7 C-5.6875 4.625 -5.6875 4.625 -5 2 C-2 0 -2 0 0 0 Z " fill="#36E9AE" transform="translate(69,77)"/>
<path d="M0 0 C0.66 0.33 1.32 0.66 2 1 C-2.455 3.97 -2.455 3.97 -7 7 C-7.66 6.67 -8.32 6.34 -9 6 C-3.30379747 1.25316456 -3.30379747 1.25316456 0 0 Z " fill="#54E1DF" transform="translate(210,261)"/>
<path d="M0 0 C-2.46153846 3.81538462 -2.46153846 3.81538462 -5.1875 4.75 C-5.785625 4.8325 -6.38375 4.915 -7 5 C-7.33 3.68 -7.66 2.36 -8 1 C-2.25 -1.125 -2.25 -1.125 0 0 Z " fill="#05E4E2" transform="translate(216,257)"/>
<path d="M0 0 C0.66 0.33 1.32 0.66 2 1 C0.02 2.98 -1.96 4.96 -4 7 C-4.99 6.67 -5.98 6.34 -7 6 C-6.67 4.35 -6.34 2.7 -6 1 C-5.34 1.66 -4.68 2.32 -4 3 C-2.68 2.01 -1.36 1.02 0 0 Z " fill="#E9E9E9" transform="translate(410,157)"/>
<path d="M0 0 C5.75 0.875 5.75 0.875 8 2 C7.67 2.99 7.34 3.98 7 5 C6.34 5 5.68 5 5 5 C5 4.01 5 3.02 5 2 C3.02 2.33 1.04 2.66 -1 3 C-0.67 2.01 -0.34 1.02 0 0 Z " fill="#1BE6C7" transform="translate(169,140)"/>
<path d="M0 0 C0.66 0.66 1.32 1.32 2 2 C0.6875 4 0.6875 4 -1 6 C-1.99 6 -2.98 6 -4 6 C-3.6875 4.125 -3.6875 4.125 -3 2 C-2.01 1.34 -1.02 0.68 0 0 Z " fill="#22DDE6" transform="translate(220,248)"/>
<path d="M0 0 C0.66 0.33 1.32 0.66 2 1 C1.34 3.64 0.68 6.28 0 9 C-2.5654594 6.4345406 -2.54046087 4.52313332 -3 1 C-2.01 0.67 -1.02 0.34 0 0 Z " fill="#1FEAB7" transform="translate(89,128)"/>
<path d="M0 0 C2.97 0.495 2.97 0.495 6 1 C4.68 2.32 3.36 3.64 2 5 C1.34 4.67 0.68 4.34 0 4 C0 2.68 0 1.36 0 0 Z " fill="#1AE7C8" transform="translate(54,253)"/>
<path d="M0 0 C2.475 0.99 2.475 0.99 5 2 C5.33 4.31 5.66 6.62 6 9 C3.59927045 6.11912454 1.52708963 3.43595166 0 0 Z " fill="#42E1CD" transform="translate(229,110)"/>
<path d="M0 0 C0.8353125 0.556875 0.8353125 0.556875 1.6875 1.125 C0.6975 1.125 -0.2925 1.125 -1.3125 1.125 C-1.3125 1.785 -1.3125 2.445 -1.3125 3.125 C-2.9625 3.125 -4.6125 3.125 -6.3125 3.125 C-6.6425 2.465 -6.9725 1.805 -7.3125 1.125 C-2.88173077 -1.09038462 -2.88173077 -1.09038462 0 0 Z " fill="#20E9C2" transform="translate(200.3125,77.875)"/>
<path d="M0 0 C0.99 0.33 1.98 0.66 3 1 C3 4.3 3 7.6 3 11 C2.01 11 1.02 11 0 11 C0.08378906 10.37351563 0.16757813 9.74703125 0.25390625 9.1015625 C0.35574219 8.28429687 0.45757812 7.46703125 0.5625 6.625 C0.66691406 5.81289062 0.77132812 5.00078125 0.87890625 4.1640625 C1.18237328 1.95100814 1.18237328 1.95100814 0 0 Z " fill="#64E6CE" transform="translate(158,161)"/>
<path d="M0 0 C-0.33 0.66 -0.66 1.32 -1 2 C-4.3 1.67 -7.6 1.34 -11 1 C-11 0.67 -11 0.34 -11 0 C-6.98195309 -0.84098656 -3.98196457 -1.05404945 0 0 Z " fill="#17F0B1" transform="translate(97,79)"/>
<path d="M0 0 C2.97 0.495 2.97 0.495 6 1 C6 1.99 6 2.98 6 4 C4.35 3.67 2.7 3.34 1 3 C0.67 2.01 0.34 1.02 0 0 Z " fill="#24E5C9" transform="translate(62,254)"/>
<path d="M0 0 C0.99 0 1.98 0 3 0 C5.1875 3 5.1875 3 7 6 C6.67 6.66 6.34 7.32 6 8 C4.9970458 6.85675161 3.99770973 5.71032809 3 4.5625 C2.443125 3.92441406 1.88625 3.28632813 1.3125 2.62890625 C0 1 0 1 0 0 Z " fill="#60E4C9" transform="translate(45,248)"/>
<path d="M0 0 C0.66 0.33 1.32 0.66 2 1 C2 1.99 2 2.98 2 4 C0.02 4 -1.96 4 -4 4 C-3.67 3.01 -3.34 2.02 -3 1 C-2.01 0.67 -1.02 0.34 0 0 Z " fill="#23E6C8" transform="translate(175,134)"/>
<path d="M0 0 C1.32 0 2.64 0 4 0 C3.67 1.65 3.34 3.3 3 5 C2.01 4.67 1.02 4.34 0 4 C0 2.68 0 1.36 0 0 Z " fill="#26ECB4" transform="translate(83,111)"/>
<path d="M0 0 C1.65 0 3.3 0 5 0 C5.33 0.99 5.66 1.98 6 3 C4.02 3 2.04 3 0 3 C0 2.01 0 1.02 0 0 Z " fill="#1AE9C1" transform="translate(160,111)"/>
<path d="M0 0 C1.68762851 1.6454378 3.3540349 3.31288577 5 5 C5 5.33 5 5.66 5 6 C3.35 6 1.7 6 0 6 C0 4.02 0 2.04 0 0 Z " fill="#43DEC4" transform="translate(220,91)"/>
<path d="M0 0 C-3.625 3 -3.625 3 -7 3 C-6.67 2.01 -6.34 1.02 -6 0 C-3.50907189 -1.24546405 -2.58919267 -0.7767578 0 0 Z " fill="#19F1AD" transform="translate(85,78)"/>
</svg>
